<?xml version="1.0" encoding="utf-8"?>
<!-- Generator: Adobe Illustrator 22.1.0, SVG Export Plug-In . SVG Version: 6.00 Build 0)  -->
<svg version="1.1" id="Capa_1" xmlns="http://www.w3.org/2000/svg" xmlns:xlink="http://www.w3.org/1999/xlink" x="0px" y="0px"
	 viewBox="0 0 521 421.3" style="enable-background:new 0 0 521 421.3;" xml:space="preserve">
<style type="text/css">
	.st0{fill:#FFFFFF;}
	.st1{fill:#CEE7FD;}
	.st2{fill:#A5C5E6;}
	.st3{fill:#FFA9D2;}
	.st4{fill:#467BA1;}
	.st5{fill:#A06146;}
	.st6{fill:#4A54B7;}
	.st7{fill:#828BE8;}
	.st8{fill:#98D4FF;}
	.st9{fill:#FFCD66;}
	.st10{fill:#D59894;}
	.st11{fill:#2E4F75;}
	.st12{fill:#3340A0;}
	.st13{fill:#D3E0FD;}
	.st14{fill:#5866C9;}
	.st15{fill:#EFC1AB;}
	.st16{opacity:0.5;fill:#EFC1AB;enable-background:new    ;}
	.st17{fill:#D26767;}
	.st18{fill:#EAAE96;}
	.st19{fill:#E17777;}
	.st20{fill:#1E3452;}
	.st21{fill:#192D40;}
	.st22{fill:#E3B59A;}
	.st23{fill:#DBAA93;}
	.st24{fill:#D372AC;}
	.st25{fill:#DE85B7;}
	.st26{opacity:0.5;fill:#FFA9D2;enable-background:new    ;}
</style>
<rect class="st0" width="521" height="421.3"/>
<title>scorm</title>
<ellipse transform="matrix(0.1606 -0.987 0.987 0.1606 132.5686 307.5942)" class="st1" cx="247.1" cy="75.9" rx="8.2" ry="8.2"/>
<path class="st1" d="M334.1,67.6c0,2.8-2.2,5-5,5s-5-2.2-5-5s2.2-5,5-5S334.1,64.9,334.1,67.6z"/>
<circle class="st1" cx="491.9" cy="122" r="6.1"/>
<path class="st1" d="M26.5,140.9c0,2.9-2.3,5.2-5.2,5.2s-5.2-2.3-5.2-5.2c0-2.9,2.3-5.2,5.2-5.2c0,0,0,0,0,0
	C24.2,135.7,26.5,138,26.5,140.9L26.5,140.9z"/>
<path class="st1" d="M244.5,118.6c0,0-20-50.8-66.7-45.8c-46.7,5-41.9,58.8-76.4,62.9s-85.5,16.2-89.1,80.3
	c-3.5,63,37.1,85.9,37.1,85.9h418.1c0,0,43.6-40.2,37.9-102.4s-55-113-113.8-107.1c-34.4,3.5-65.9,32-99.1,39.5
	S244.5,118.6,244.5,118.6z"/>
<circle class="st2" cx="429.8" cy="124" r="15.2"/>
<path class="st0" d="M428.2,132l-8.5-6.5c-0.4-0.3-0.4-0.9,0-1.3c0.3-0.3,0.8-0.4,1.1-0.1l7,5.4l9-13.1c0.3-0.4,0.8-0.5,1.2-0.2
	c0,0,0,0,0,0c0.4,0.3,0.5,0.8,0.2,1.2L428.2,132z"/>
<circle class="st2" cx="123.2" cy="177.2" r="9.5"/>
<path class="st0" d="M122.2,182.1l-5.3-4.1c-0.2-0.2-0.3-0.5-0.1-0.8c0.2-0.2,0.5-0.3,0.8-0.1l4.4,3.4l5.6-8.2
	c0.1-0.3,0.5-0.4,0.8-0.2c0.3,0.1,0.4,0.5,0.2,0.8c0,0,0,0.1-0.1,0.1L122.2,182.1z"/>
<path class="st3" d="M71,158.9c-5.4,0-9.8,4.4-9.8,9.8c0,5.4,4.4,9.8,9.8,9.8c5.4,0,9.8-4.4,9.8-9.8c0,0,0,0,0,0H71V158.9z"/>
<path class="st4" d="M72.3,157.6v9.8h9.8C82.1,162,77.7,157.6,72.3,157.6z"/>
<rect x="46.8" y="290.9" class="st5" width="424.8" height="18"/>
<polygon class="st6" points="278.6,284.7 233.2,284.7 240.7,235.8 271,235.8 "/>
<path class="st7" d="M163.2,118.5h185.4c3.9,0,7.1,3.2,7.1,7.1v117.3c0,3.9-3.2,7.1-7.1,7.1H163.2c-3.9,0-7.1-3.2-7.1-7.1V125.6
	C156.1,121.6,159.2,118.5,163.2,118.5z"/>
<path class="st8" d="M353.2,224.4v-98.9c0-2.6-2.1-4.6-4.6-4.6H163.2c-2.5,0-4.6,2.1-4.6,4.6v98.9H353.2z"/>
<path class="st0" d="M353.2,130.3v-4.8c0-2.6-2.1-4.6-4.6-4.6H163.2c-2.5,0-4.6,2.1-4.6,4.6v4.8H353.2z"/>
<rect x="158.5" y="215.6" class="st0" width="194.7" height="8.8"/>
<path class="st7" d="M311.1,283.1H200.6c-1.9,0.1-3.3,1.7-3.2,3.6c0.1,1.7,1.5,3.1,3.2,3.2h110.5c1.9,0.1,3.5-1.3,3.6-3.2
	c0.1-1.9-1.3-3.5-3.2-3.6C311.4,283.1,311.2,283.1,311.1,283.1z"/>
<rect x="167.5" y="135.7" class="st0" width="75" height="75"/>
<rect x="255.9" y="135.7" class="st6" width="89.1" height="10.3"/>
<rect x="255.9" y="153.9" class="st0" width="41.5" height="1.5"/>
<rect x="303.4" y="153.9" class="st0" width="41.5" height="1.5"/>
<rect x="255.9" y="158.8" class="st0" width="41.5" height="1.5"/>
<rect x="303.4" y="158.8" class="st0" width="41.5" height="1.5"/>
<rect x="255.9" y="163.6" class="st0" width="41.5" height="1.5"/>
<rect x="303.4" y="163.6" class="st0" width="41.5" height="1.5"/>
<rect x="255.9" y="168.6" class="st0" width="41.5" height="1.5"/>
<rect x="303.4" y="168.6" class="st0" width="41.5" height="1.5"/>
<rect x="255.9" y="173.5" class="st0" width="41.5" height="1.5"/>
<rect x="303.4" y="173.5" class="st0" width="41.5" height="1.5"/>
<rect x="255.9" y="178.4" class="st0" width="41.5" height="1.5"/>
<rect x="303.4" y="178.4" class="st0" width="41.5" height="1.5"/>
<rect x="255.9" y="183.3" class="st0" width="41.5" height="1.5"/>
<rect x="303.4" y="183.3" class="st0" width="41.5" height="1.5"/>
<rect x="255.9" y="188.2" class="st0" width="41.5" height="1.5"/>
<rect x="303.4" y="188.2" class="st0" width="41.5" height="1.5"/>
<rect x="255.9" y="193.1" class="st0" width="41.5" height="1.5"/>
<rect x="303.4" y="193.1" class="st0" width="41.5" height="1.5"/>
<rect x="255.9" y="200.4" class="st0" width="89.1" height="10.3"/>
<polygon class="st9" points="388.6,213.9 388.6,164.6 347.7,164.6 347.7,220.3 382.4,220.3 "/>
<rect x="350.1" y="172.1" class="st0" width="18.6" height="6.5"/>
<rect x="347.7" y="164.6" class="st6" width="40.9" height="3.3"/>
<rect x="369.4" y="172.1" class="st0" width="16.8" height="0.9"/>
<rect x="350.1" y="179.8" class="st0" width="36.1" height="0.9"/>
<rect x="350.1" y="184.4" class="st0" width="36.1" height="0.9"/>
<rect x="350.1" y="188.9" class="st0" width="36.1" height="0.9"/>
<rect x="350.1" y="193.5" class="st0" width="36.1" height="0.9"/>
<rect x="350.1" y="198" class="st0" width="36.1" height="0.9"/>
<rect x="350.1" y="202.6" class="st0" width="36.1" height="0.9"/>
<rect x="350.1" y="207.1" class="st0" width="36.1" height="0.9"/>
<rect x="350.1" y="211.7" class="st0" width="36.1" height="0.9"/>
<polygon class="st0" points="388.6,213.9 382.4,220.3 382.4,213.9 "/>
<path class="st10" d="M481.6,290.1H30.4c-2.3,0-4.2,1.9-4.2,4.2c0,2.3,1.9,4.2,4.2,4.2h451.2c2.3,0,4.2-1.9,4.2-4.2
	C485.9,292,484,290.1,481.6,290.1z"/>
<rect x="309.1" y="290.9" class="st11" width="113.8" height="2.8"/>
<rect x="309.1" y="290.9" class="st12" width="51.9" height="2.8"/>
<path class="st12" d="M381.7,291.5h-74.8c-1,0-1.9-0.7-2.1-1.7l-10.3-53.7c-0.2-1.1,0.6-2.2,1.7-2.4c0.1,0,0.2,0,0.4,0h74.8
	c1,0,1.9,0.7,2.1,1.7l10.3,53.7c0.2,1.1-0.5,2.2-1.7,2.5C381.9,291.5,381.8,291.5,381.7,291.5z"/>
<path class="st6" d="M383.8,291.5H309c-1,0-1.9-0.7-2.1-1.7l-10.3-53.7c-0.2-1.1,0.5-2.2,1.7-2.4c0.1,0,0.3,0,0.4,0h74.8
	c1,0,1.9,0.7,2.1,1.7l10.3,53.7c0.2,1.1-0.5,2.2-1.7,2.5C384.1,291.5,383.9,291.5,383.8,291.5z"/>
<polygon class="st13" points="381.6,283.9 372.5,236.9 300.2,236.9 309.2,283.9 "/>
<polygon class="st8" points="306.2,247.4 312.5,280 376.9,280 370.6,247.4 "/>
<polygon class="st0" points="360.9,264.8 361.1,265.5 372.8,265.5 372.7,264.8 "/>
<polygon class="st0" points="361.2,266.1 361.3,266.8 373,266.8 372.9,266.1 "/>
<polygon class="st0" points="360.7,263.5 360.8,264.2 372.5,264.2 372.4,263.5 "/>
<polygon class="st0" points="360.4,262.2 360.6,262.9 372.3,262.9 372.2,262.2 "/>
<polygon class="st0" points="361.4,267.3 361.6,268 373.3,268 373.2,267.3 "/>
<polygon class="st0" points="361.7,268.6 361.8,269.3 373.5,269.3 373.4,268.6 "/>
<polygon class="st0" points="370.1,251.4 369.9,250.6 358.2,250.6 358.4,251.4 "/>
<polygon class="st0" points="361.9,269.9 362.1,270.6 373.8,270.6 373.6,269.9 "/>
<polygon class="st0" points="374,271.9 373.9,271.2 362.2,271.2 362.3,271.9 "/>
<polygon class="st0" points="358.5,252 358.6,252.6 370.3,252.6 370.2,252 "/>
<polygon class="st0" points="360.2,260.9 360.3,261.6 372,261.6 371.9,260.9 "/>
<polygon class="st0" points="359.2,255.8 359.3,256.5 371.1,256.5 370.9,255.8 "/>
<polygon class="st0" points="359,254.5 359.1,255.2 370.8,255.2 370.7,254.5 "/>
<polygon class="st0" points="362.4,272.5 362.6,273.5 374.4,273.5 374.1,272.5 "/>
<polygon class="st0" points="358.7,253.2 358.8,253.9 370.6,253.9 370.4,253.2 "/>
<polygon class="st0" points="359.5,257.1 359.6,257.8 371.3,257.8 371.2,257.1 "/>
<polygon class="st0" points="360,259.6 360.1,260.3 371.8,260.3 371.7,259.6 "/>
<polygon class="st0" points="359.7,258.4 359.8,259.1 371.6,259.1 371.4,258.4 "/>
<polygon class="st0" points="336.8,273.5 332.4,250.6 309,250.6 313.4,273.5 "/>
<polygon class="st0" points="361.7,273.5 357.2,250.6 333.8,250.6 338.2,273.5 "/>
<polygon class="st14" points="373.6,242.6 372.5,236.9 300.2,236.9 301.3,242.6 "/>
<path class="st4" d="M72.1,223.8c-0.9-0.2-1.8-0.5-2.6-0.8l0.3-0.9c0.8,0.3,1.7,0.5,2.5,0.7L72.1,223.8z"/>
<path class="st4" d="M64.5,221c-1.6-0.8-3.1-1.7-4.5-2.7l0.5-0.7c1.4,1,2.9,1.8,4.5,2.6L64.5,221z M55.8,215.1
	c-1.3-1.2-2.6-2.4-3.8-3.8l0.7-0.6c1.2,1.3,2.4,2.5,3.7,3.7L55.8,215.1z M48.8,207.2c-1-1.5-1.9-3-2.8-4.6l0.8-0.4
	c0.8,1.5,1.7,3,2.7,4.4L48.8,207.2z M43.8,197.8c-0.6-1.6-1.2-3.3-1.7-5l0.9-0.2c0.5,1.7,1,3.3,1.7,4.9L43.8,197.8z M41,187.6
	c-0.3-1.7-0.6-3.4-0.7-5.2l0.9-0.1c0.2,1.8,0.4,3.5,0.7,5.2L41,187.6z M39.9,177.1c0-0.7,0-1.5,0-2.3c0-1,0-2,0.1-3h0.9c0,1,0,2,0,3
	c0,0.8,0,1.5,0,2.2L39.9,177.1z M41.2,166.6l-0.9-0.1c0.2-1.8,0.4-3.5,0.8-5.2l0.9,0.2C41.5,163.1,41.3,164.9,41.2,166.6L41.2,166.6
	z M43,156.4l-0.9-0.2c0.5-1.7,1-3.4,1.6-5l0.8,0.3C44,153,43.5,154.7,43,156.4z M46.6,146.6l-0.8-0.4c0.8-1.6,1.6-3.2,2.5-4.7
	l0.8,0.5C48.2,143.5,47.4,145.1,46.6,146.6L46.6,146.6z M52,137.7l-0.7-0.5c1-1.4,2.2-2.8,3.3-4.1l0.7,0.6
	C54.2,134.9,53.1,136.3,52,137.7z M59,129.9l-0.6-0.6c1.3-1.2,2.6-2.4,4-3.4l0.5,0.7C61.5,127.6,60.2,128.7,59,129.9z M67.2,123.5
	l-0.5-0.8c1.5-0.9,3-1.8,4.6-2.7l0.4,0.8C70.1,121.7,68.6,122.6,67.2,123.5L67.2,123.5z M76.4,118.6l-0.4-0.8
	c1.6-0.7,3.3-1.3,4.9-1.9l0.3,0.8C79.6,117.3,78,117.9,76.4,118.6L76.4,118.6z M122.4,116.2c-1.7-0.5-3.3-1-5-1.3l0.2-0.9
	c1.7,0.4,3.4,0.8,5.1,1.4L122.4,116.2z M86.3,115.2l-0.3-0.8c1.7-0.4,3.4-0.8,5.2-1.1l0.1,0.9C89.6,114.5,87.9,114.8,86.3,115.2
	L86.3,115.2z M112.2,113.9c-1.7-0.2-3.5-0.4-5.2-0.6l0.1-0.9c1.8,0.1,3.5,0.3,5.3,0.6L112.2,113.9z M96.5,113.5l-0.1-0.9
	c1.8-0.2,3.5-0.2,5.3-0.3v0.9C100,113.3,98.3,113.3,96.5,113.5z"/>
<path class="st4" d="M129.8,119.1c-0.8-0.4-1.6-0.7-2.5-1l0.3-0.8c0.8,0.3,1.7,0.7,2.5,1.1L129.8,119.1z"/>
<path class="st4" d="M371.6,141.8v-0.9c1.5,0.1,2.9,0.1,4.4,0l0.1,0.9C374.5,141.9,373.1,141.9,371.6,141.8z M381.5,141l-0.2-0.9
	c1.7-0.4,3.4-0.9,5-1.6l0.4,0.8C384.9,140.1,383.2,140.6,381.5,141L381.5,141z M391.5,136.8L391,136c1.5-1,2.8-2.1,4.1-3.4l0.6,0.6
	C394.4,134.6,393,135.7,391.5,136.8z M399.1,129.1l-0.7-0.5c1-1.5,1.8-3,2.5-4.6l0.8,0.4C401,126,400.1,127.6,399.1,129.1
	L399.1,129.1z M403.5,119.1l-0.9-0.2c0.4-1.7,0.7-3.5,0.9-5.2l0.9,0.1C404.2,115.6,403.9,117.4,403.5,119.1L403.5,119.1z M258,104.8
	c-1.8-0.1-3.6-0.2-5.4-0.4l0.1-0.9c1.8,0.2,3.6,0.3,5.4,0.4L258,104.8z M263.4,105v-0.9c1.8,0,3.6,0,5.4-0.1v0.9
	C267,105,265.2,105,263.4,105L263.4,105z M247.2,103.8c-1.8-0.2-3.6-0.5-5.4-0.8l0.1-0.9c1.8,0.3,3.6,0.5,5.3,0.8L247.2,103.8z
	 M274.2,104.5l-0.1-0.9c1.8-0.2,3.6-0.5,5.3-0.8l0.2,0.9C277.8,104,276,104.3,274.2,104.5L274.2,104.5z M236.5,102.1
	c-3.3-0.6-5.3-1.1-5.3-1.1l0.2-0.9c0,0,2,0.5,5.3,1.1L236.5,102.1z M403.5,108.4c-0.1-1.8-0.4-3.5-0.8-5.2l0.9-0.2
	c0.4,1.8,0.7,3.6,0.9,5.4L403.5,108.4z M284.8,102.4l-0.3-0.9c1.7-0.5,3.4-1.2,5-1.9l0.4,0.8C288.3,101.2,286.6,101.9,284.8,102.4z
	 M290,101.2v-0.9c1.8,0.1,3.6,0,5.3-0.2l0.1,0.9C293.6,101.2,291.8,101.3,290,101.2z M284.6,100.6c-1.8-0.4-3.5-0.9-5.2-1.6l0.4-0.8
	c1.6,0.7,3.3,1.2,5,1.6L284.6,100.6z M300.8,100.1l-0.2-0.9c0.8-0.2,1.7-0.4,2.5-0.6s1.8-0.5,2.6-0.8l0.3,0.9
	c-0.9,0.3-1.8,0.5-2.6,0.8S301.6,99.9,300.8,100.1L300.8,100.1z M294.6,97.6l-0.5-0.7c1.4-1.1,2.7-2.3,3.8-3.7l0.7,0.6
	C297.4,95.3,296.1,96.5,294.6,97.6L294.6,97.6z M274.6,96.1c-1.5-1.1-2.7-2.5-3.8-4l0.7-0.5c1,1.4,2.2,2.7,3.6,3.8L274.6,96.1z
	 M311.1,96.9l-0.3-0.8c1.6-0.6,3.2-1.3,5-2l0.4,0.8C314.4,95.7,312.7,96.3,311.1,96.9L311.1,96.9z M401,98.1
	c-0.7-1.6-1.5-3.2-2.5-4.7l0.8-0.5c1,1.5,1.9,3.1,2.6,4.8L401,98.1z M321,92.7l-0.4-0.8c1.6-0.8,3.2-1.6,4.9-2.3l0.4,0.8
	C324.3,91.1,322.7,91.9,321,92.7z M301.4,89.2l-0.8-0.4c0.8-1.6,1.4-3.2,1.8-4.9l0.9,0.2C302.9,85.9,302.3,87.6,301.4,89.2
	L301.4,89.2z M268.3,87.2c-0.5-1.8-0.8-3.6-0.7-5.4h0.9c-0.1,1.7,0.2,3.5,0.7,5.2L268.3,87.2z M330.7,87.9l-0.4-0.8
	c1.6-0.8,3.2-1.6,4.8-2.4l0.4,0.8L330.7,87.9z M395.1,89.3c-1.2-1.2-2.6-2.4-4-3.3l0.5-0.8c1.5,1,2.9,2.2,4.2,3.5L395.1,89.3z
	 M340.4,83.3l-0.4-0.8c1.8-0.8,3.4-1.5,5-2.1l0.3,0.8C343.8,81.8,342.2,82.5,340.4,83.3L340.4,83.3z M386.4,83.2
	c-1.6-0.9-3.2-1.7-4.8-2.4L382,80c1.6,0.7,3.2,1.5,4.9,2.4L386.4,83.2z M302.8,78.7c-0.1-1.7-0.5-3.5-1.2-5.1l0.8-0.3
	c0.7,1.7,1.1,3.5,1.3,5.3L302.8,78.7z M269.5,76.7l-0.8-0.3c0.6-1.7,1.5-3.4,2.5-4.9L272,72C271,73.4,270.1,75,269.5,76.7
	L269.5,76.7z M350.4,79.5l-0.3-0.9c1.8-0.5,3.5-1,5.2-1.4l0.2,0.9C353.9,78.5,352.2,79,350.4,79.5L350.4,79.5z M376.7,79
	c-1.7-0.5-3.4-0.9-5.2-1.2l0.1-0.9c1.8,0.3,3.6,0.7,5.3,1.3L376.7,79z M360.9,77.4l-0.1-0.9c1.8-0.2,3.6-0.2,5.4-0.1v0.9
	C364.4,77.2,362.7,77.2,360.9,77.4L360.9,77.4z M275.5,68.1l-0.6-0.7c1.4-1.2,2.9-2.3,4.6-3.1l0.4,0.8
	C278.3,66,276.8,66.9,275.5,68.1L275.5,68.1z M298.9,69.1c-1.1-1.3-2.5-2.5-4-3.3l0.5-0.8c1.6,0.9,3,2.1,4.2,3.5L298.9,69.1z
	 M284.8,63.6l-0.1-0.9c1.8-0.2,3.7-0.2,5.5,0.2l-0.2,0.9C288.3,63.5,286.6,63.4,284.8,63.6L284.8,63.6z"/>
<path class="st4" d="M451.9,241.7l-0.3-0.9c1.7-0.5,3.3-1.2,4.9-2l0.4,0.8C455.3,240.5,453.6,241.2,451.9,241.7z M461.6,236.9
	l-0.5-0.7c1.4-1,2.8-2.1,4.1-3.3l0.6,0.7C464.5,234.7,463.1,235.8,461.6,236.9z M469.6,229.6l-0.7-0.6c1.2-1.4,2.2-2.8,3.2-4.2
	l0.7,0.5C471.9,226.7,470.8,228.2,469.6,229.6L469.6,229.6z M475.7,220.6l-0.8-0.4c0.8-1.6,1.6-3.2,2.2-4.8l0.8,0.3
	C477.3,217.3,476.6,219,475.7,220.6L475.7,220.6z M479.7,210.5l-0.9-0.2c0.5-1.7,0.9-3.5,1.2-5.2l0.9,0.1
	C480.6,206.9,480.2,208.7,479.7,210.5L479.7,210.5z M481.4,199.7h-0.9c0-0.6,0-1.1,0-1.7c0-1.2,0-2.4-0.1-3.6l0.9-0.1
	c0.1,1.2,0.1,2.5,0.1,3.7C481.4,198.6,481.4,199.2,481.4,199.7L481.4,199.7z M479.6,189.1c-0.4-1.7-0.8-3.5-1.4-5.1l0.9-0.3
	c0.6,1.7,1,3.5,1.4,5.2L479.6,189.1z M476.3,179c-0.7-1.6-1.6-3.2-2.5-4.7l0.8-0.5c0.9,1.6,1.8,3.2,2.5,4.8L476.3,179z M470.9,169.8
	c-1.1-1.4-2.2-2.8-3.4-4.1l0.7-0.6c1.2,1.3,2.4,2.7,3.5,4.2L470.9,169.8z M463.6,162c-1.3-1.2-2.8-2.3-4.2-3.3l0.5-0.7
	c1.5,1,2.9,2.1,4.3,3.3L463.6,162z M454.9,156c-1.5-0.9-3.1-1.7-4.8-2.4l0.4-0.8c1.7,0.8,3.3,1.6,4.9,2.4L454.9,156z M445.2,151.6
	c-1.6-0.6-3.4-1.1-5.1-1.6l0.2-0.9c1.8,0.5,3.5,1,5.2,1.6L445.2,151.6z M386.9,149.7l-0.2-0.9c0,0,2-0.5,5.3-1l0.1,0.9
	C388.8,149.2,386.9,149.7,386.9,149.7L386.9,149.7z M434.9,148.8c-1.7-0.3-3.5-0.7-5.3-0.9l0.1-0.9c1.8,0.3,3.6,0.6,5.3,0.9
	L434.9,148.8z M397.5,147.9l-0.1-0.9c1.8-0.2,3.6-0.4,5.4-0.6l0.1,0.9C401,147.4,399.2,147.6,397.5,147.9L397.5,147.9z M424.3,147.3
	c-1.8-0.1-3.5-0.3-5.4-0.3v-0.9c1.8,0.1,3.6,0.2,5.4,0.3L424.3,147.3z M408.2,147l0-0.9c1.8-0.1,3.6-0.1,5.4-0.1v0.9
	C411.7,146.8,409.9,146.9,408.2,147L408.2,147z"/>
<path class="st15" d="M439.4,227.4c0,0-3.6-8.2-2.8-12.1c1.2-5.6,13.9-18,7-29.1s-19.1-11.7-27.9-8.6s-13.2,11.2-11.5,18.3
	c1.4,6-5.9,9.2-4.2,10.8s3.5,0.5,3.5,1.7s-0.8,1.7-0.8,2.7s2.2,1.7,2.2,1.7s-2.1,1.1-1.6,2.1s2.6,0.9,2.6,1.9s-1.7,5.3,1,6.4
	s12.4-2.9,14-1.3s-1.8,7.2-1.8,7.2L439.4,227.4z"/>
<path class="st16" d="M422.7,215.7c-7.5,4.8-13.9,5.3-17.3,5c0,1.1,0.6,2,1.5,2.4c2.7,1.1,11.8-2.6,13.8-1.4
	c2.5-0.8,4.8-1.3,6.8-0.7c3.6,1.2,3,5.1,3.3,7l8.6-0.7c0,0-3.6-8.2-2.8-12.1c1-5,11.2-15.4,8.5-25.5c-5.6,1.1-11.1,2.7-11.1,2.7
	S433.9,208.4,422.7,215.7z"/>
<path class="st17" d="M414.5,232c0,0-0.1-4.7,13.9-6.6c14.6-2,18.7,3.6,15.7,6.6S414.5,232,414.5,232z"/>
<path class="st18" d="M421.5,246.2c-3.2,3.2-2.1,29.6-4.1,31.6s-40.4,1.2-40.4,1.2h-1.8c-1.8,0-3.6-2.1-6.9-4.6s-4.9-1.1-9.3-0.1
	s-9.7,7.5-10.1,9.2s5.5-1.3,8.5-2.2s3.5,1.6,7.2,4.1s10.8,1.1,10.8,1.1s41.8,7.9,49.6,7.9s12.3-31.6,12.3-39.8
	S424.7,243,421.5,246.2z"/>
<path class="st19" d="M398,254.8c2.6-13.2,12.6-23.4,25.2-25.5c3.5-0.6,7.1-0.9,10.7-0.9c21.5,0,27.6,15.1,27.6,29.7
	s-7.8,53.2-7.8,53.2h-66.8L398,254.8z"/>
<path class="st17" d="M443.5,229.6c0.7,5.5,1,11.1,0.9,16.7c0,33.6-20.4,40.1-30.1,40.1c-5.4,0-15-0.6-22.3-0.7l-5,25.6h66.8
	c0,0,7.8-38.5,7.8-53.2C461.5,245.9,457.2,233.4,443.5,229.6z"/>
<path class="st15" d="M402.5,252.9c-3.5,2.9-4.6,29.3-6.8,31.1s-40.4-2.3-40.4-2.3l-1.8-0.2c-1.8-0.2-3.4-2.4-6.5-5.2
	c-3.1-2.8-4.8-1.5-9.3-0.9s-10.3,6.6-10.8,8.3s5.6-0.8,8.6-1.4s3.4,1.9,6.9,4.7s10.6,2,10.6,2s41,11.5,48.7,12.1s15-30.4,15.6-38.6
	S406,249.9,402.5,252.9z"/>
<path class="st16" d="M417.4,262.7c0.3-3.2-1.4-5.9-3.8-7.7c-2.6,8-4.6,16.9-4.6,16.9s1.7,22.7-9.9,22.7s-47.1-6.7-50.4-10
	s-7.1-5.2-11.9-5c-2.4,0.1-5.3,0.9-7.2,0.8c-1.1,1-2.1,2.1-2.8,3.4c-0.6,1.7,5.6-0.8,8.6-1.4s3.4,1.9,6.9,4.7s10.6,2,10.6,2
	s41,11.5,48.7,12.1S416.7,270.9,417.4,262.7z"/>
<path class="st19" d="M409.2,235.5c0,0-5.6,1.2-9.4,10s-6.5,27.2-6.5,28.1c-0.1,0.9,3.1,3.2,10.7,4.4c4.7,0.7,9.5,0.3,14-1.2
	c0,0,8.3-24.3,6.2-32.1S413.5,234,409.2,235.5z"/>
<path class="st17" d="M424.3,244.7c-1.3-4.5-4.9-8-9.4-9.1c0.3,10-0.8,37.8-21.4,36.8c-0.1,0.7-0.2,1.2-0.2,1.3
	c-0.1,0.9,3.1,3.2,10.7,4.4c4.7,0.7,9.5,0.3,14-1.2C418.1,276.8,426.4,252.6,424.3,244.7z"/>
<path class="st12" d="M464,243.4c-14.2-1-28.6,0.2-42.4,3.6c-6.3,1.6-11.2,8.5-11.2,15v23.3c0,6.4,5,13.1,11.2,14.3
	c14,2.7,28.3,3.1,42.4,1.2c6.8-0.9,12.3-7.6,12.3-14.3v-29.4C476.3,250.3,470.8,243.9,464,243.4z"/>
<path class="st12" d="M474.1,244.5c-14.3-2.1-28.8-1.9-43.1,0.5c-6.4,1.1-11.5,7.8-11.5,14.2v28.3c0,6.5,5.1,12.9,11.5,13.6
	c14.4,1.6,28.9,1,43.1-1.9c6.8-1.4,12.3-8.6,12.3-15.4v-24.7C486.4,252.4,480.9,245.5,474.1,244.5z"/>
<path class="st6" d="M480.5,247.4c-1.8-1.5-4.1-2.5-6.4-2.9c-14.3-2.1-28.8-1.9-43.1,0.5c-6.4,1.1-11.5,7.8-11.5,14.2v28.3
	c0,0.8,0.1,1.5,0.2,2.2C466.1,289.6,478.1,265.5,480.5,247.4z"/>
<path class="st20" d="M450.4,277.3L450.4,277.3c-3.3,0.1-6,2.9-6,6.2v27.3h12.1v-27.6c0-3.3-2.6-6-5.9-6
	C450.5,277.3,450.5,277.3,450.4,277.3z"/>
<path class="st6" d="M453.9,277.2L453.9,277.2c-3.4,0.1-6.1,2.8-6.1,6.2v27.4h12.2v-27.6c0-3.3-2.7-6-6-6
	C454,277.2,454,277.2,453.9,277.2z"/>
<path class="st20" d="M460.1,272.4l-19.3,0.5c-2,0.1-3.6,1.7-3.6,3.8v4.2c0,2,1.6,3.6,3.5,3.6c0,0,0,0,0.1,0l19.3-0.4
	c2.1,0,3.7-1.7,3.7-3.8V276c0-2-1.6-3.6-3.6-3.6C460.2,272.4,460.2,272.4,460.1,272.4z"/>
<path class="st14" d="M463.7,272.3l-19.4,0.5c-2,0.1-3.6,1.7-3.6,3.8v4.2c0,2,1.6,3.6,3.5,3.6c0,0,0.1,0,0.1,0l19.4-0.4
	c2.1,0,3.7-1.7,3.8-3.8v-4.3c0-2-1.6-3.6-3.6-3.6C463.8,272.3,463.8,272.3,463.7,272.3z"/>
<path class="st21" d="M399.5,180.6c-1.1,3,0,6.4,2.7,8.2c4.7,3.3,20.4,0.6,20.4,0.6s-4.7,3.2-1.3,6.7s2.4,7.9,3.6,7.9
	s2.2-6.3,5.5-6.3s1.8,7.9-0.7,9.3s-1.6,4.6,1.6,6.2s4.2,1.8,6.3,1.1c3-1,9-13.8,10.5-21.2s-5.1-11.6-5.1-11.6s-0.6-6.8-11-8.7
	s-21.6,2.8-21.6,2.8s-0.5-1.9-4.6-1.2S399.5,180.6,399.5,180.6z"/>
<rect x="92.9" y="291.4" class="st11" width="111.1" height="2.7"/>
<rect x="153.3" y="291.4" class="st2" width="50.7" height="2.7"/>
<path class="st2" d="M133.1,292h73c1,0,1.8-0.7,2-1.7l10-52.4c0.2-1.1-0.5-2.2-1.6-2.4c-0.1,0-0.2,0-0.4,0h-73c-1,0-1.8,0.7-2,1.7
	l-10,52.4c-0.2,1.1,0.5,2.2,1.6,2.4C132.9,292,133,292,133.1,292z"/>
<path class="st0" d="M131,292h73c1,0,1.8-0.7,2-1.7l10-52.4c0.2-1.1-0.5-2.2-1.7-2.4c-0.1,0-0.2,0-0.3,0h-73c-1,0-1.8,0.7-2,1.7
	l-10,52.4c-0.2,1.1,0.5,2.2,1.7,2.4C130.8,292,130.9,292,131,292z"/>
<polygon class="st2" points="133.2,284.6 142,238.7 212.7,238.7 203.8,284.6 "/>
<polygon class="st8" points="133.2,284.6 142,238.7 212.7,238.7 203.8,284.6 "/>
<polygon class="st0" points="202.1,265.9 206.7,242.1 166.1,242.1 161.5,265.9 "/>
<polygon class="st13" points="136.2,268.7 133.2,284.6 203.8,284.6 206.9,268.7 "/>
<polygon class="st0" points="162.5,242.1 144.9,242.1 137.4,281.1 155,281.1 "/>
<path class="st22" d="M79.5,234.7c0,0,3.3-7.5,2.5-11.1c-1.1-5.1-12.7-16.4-6.4-26.6s17.5-10.6,25.5-7.8s12,10.2,10.5,16.7
	c-1.3,5.4,5.3,7.9,3.8,9.5s-3.2,0.9-3.2,2s0.8,1,0.8,1.9s-1.7,2.1-1.7,2.1s1.1,0.6,0.7,1.5s-1.9,1.2-1.9,2.1s1.2,4.8-1.3,5.8
	s-11-2.6-12.4-1.2s1.7,6.6,1.7,6.6L79.5,234.7z"/>
<path class="st23" d="M110.3,229c-3.4-0.6-6.4-2.8-7.8-6c-5.4-10.4-0.2-20.7-0.2-20.7s-1.5-10.9-7.4-10.9c-3.1,0-11.7,3.1-19.7,6.7
	c-4.9,9.8,5.9,20.6,6.9,25.5c0.8,3.6-2.5,11.1-2.5,11.1l18.6,1.6c0,0-3.1-5.2-1.7-6.6s9.9,2.1,12.4,1.2
	C109.6,230.5,110.2,229.8,110.3,229z"/>
<path class="st24" d="M102.2,238.9c0,0,0.1-4.3-12.7-6.1c-13.3-1.9-17.1,3.3-14.3,6.1C78,241.7,102.2,238.9,102.2,238.9z"/>
<path class="st23" d="M131.7,283.7c0,0,6.6,0,9.4-3s2.8-4.5,5.6-4.2s6.8,2.6,7.7,1.3c0.6-0.9-5.9-6.7-9.4-7
	c-4.6-0.4-7.8-1.1-10.3,1.8s-2.7,3.9-4.4,4.2l-1.6,0.4L131.7,283.7z"/>
<path class="st25" d="M68.5,243.4c0,0-4.8,2.5-0.5,11.8c4.3,9.3,19.2,46.2,31.6,43.7s34-12.7,34-12.7s1.1-7.1-3.6-10.8
	c0,0-23.3,5.4-27.7,5.4C95.8,280.8,87,239.9,68.5,243.4z"/>
<path class="st3" d="M117.3,259.7c-2.4-12-11.5-21.3-23-23.3c-3.2-0.5-6.5-0.8-9.7-0.8c-19.6,0-25.2,13.8-25.2,27.1
	c0,13.3,7.1,48.5,7.1,48.5h61L117.3,259.7z"/>
<path class="st26" d="M99.9,294.6C92.7,283.1,95,253,96.8,237c-0.8-0.2-1.7-0.4-2.5-0.6c-3.2-0.5-6.5-0.8-9.7-0.8
	c-19.6,0-25.2,13.8-25.2,27.1s7.1,48.5,7.1,48.5h61l-1.3-6.9C117.3,305,105.7,303.8,99.9,294.6z"/>
<path class="st22" d="M155,289.2c0,0,6.5,1,9.8-1.5s3.7-4.8,6.4-4.1s8.3,3.2,7.8,1.6s-5.6-7.2-9.6-8s-5.6-2-8.5,0.5
	s-4.4,4.4-6.1,4.5l-1.6,0.1L155,289.2z"/>
<path class="st23" d="M171.2,283.7c2.7,0.7,8.3,3.2,7.8,1.6c-0.5-1-1.1-1.9-1.9-2.7c-2.2-0.3-4.3-0.8-6.4-1.5
	c-3.7-1.1-6.6,2.3-11.1,3.2s-6.4-1.4-6.4-1.4l0,0l1.7,6.4c0,0,6.5,1,9.8-1.5S168.4,283,171.2,283.7z"/>
<path class="st3" d="M99.9,237.6c0,0-5.2,1.8-2.3,11.6s11.8,48.7,24.4,48.1s35.6-7.2,35.6-7.2s2.2-6.9-1.9-11.2c0,0-23.8,1.7-28.2,1
	C121.1,278.8,118.8,237.1,99.9,237.6z"/>
<path class="st26" d="M123.3,288c-10.8-2.3-16-27.8-19.7-38.1c-2-5.8-0.2-9.2,1.9-11.1c-1.8-0.9-3.7-1.3-5.7-1.2
	c0,0-5.2,1.8-2.3,11.6s11.8,48.7,24.4,48.1s35.6-7.2,35.6-7.2c0.4-1.5,0.6-3.1,0.6-4.7C147.4,287.2,130.4,289.5,123.3,288z"/>
<path class="st21" d="M114.8,190.5c1.8,2.7,2.5,6,1.9,9.2c-0.8,5.8-11.5,5.3-13.2,7s-7.6,5.1-3.6,12.9c3.5,6.8-0.6,7.3-2.4,12.9
	s7.7,8.1,4.7,15.2s-20.5,11.1-34.7,2.3c-14.2-8.8-3.9-28.4,2.2-37.2c6.3-9.1,1-22.3,13.4-27.4c10.8-4.4,17.3,3.2,21,2.1
	S112.5,187.4,114.8,190.5z"/>
<path class="st12" d="M52.7,245c13.9-1,27.9,0.2,41.4,3.5c6.1,1.5,11,8.3,11,14.6v22.8c0,6.3-4.8,12.8-11,14
	c-13.7,2.6-27.7,3-41.5,1.2c-6.6-0.8-12-7.4-12-14v-28.8C40.7,251.8,46,245.5,52.7,245z"/>
<path class="st12" d="M42.8,246.1c13.9-2.1,28.1-1.9,42,0.5c6.3,1.1,11.2,7.6,11.2,13.9v27.6c0,6.3-5,12.5-11.2,13.3
	c-14,1.6-28.2,1-42-1.9c-6.7-1.3-12-8.4-12-15v-24.1C30.8,253.8,36.2,247.1,42.8,246.1z"/>
<path class="st6" d="M84.9,246.6c-13.9-2.4-28.1-2.5-42-0.5c-2,0.3-3.8,1.1-5.4,2.2c1.4,17.3,10.8,46,57.6,45
	c0.7-1.6,1.1-3.4,1.1-5.2v-27.6C96.1,254.2,91.2,247.6,84.9,246.6z"/>
<path class="st20" d="M66,278.1L66,278.1c3.3,0.1,5.9,2.8,5.9,6.1v26.7H60v-26.9c0-3.2,2.6-5.8,5.8-5.8
	C65.9,278.1,65.9,278.1,66,278.1z"/>
<path class="st6" d="M62.5,278L62.5,278c3.3,0.1,5.9,2.8,5.9,6.1v26.7H56.6v-27c0-3.2,2.6-5.8,5.8-5.8C62.4,278,62.5,278,62.5,278z"
	/>
<path class="st20" d="M56.5,273.3l18.9,0.5c2,0.1,3.5,1.7,3.5,3.7v4.1c0,1.9-1.5,3.5-3.4,3.5c0,0-0.1,0-0.1,0l-18.9-0.4
	c-2,0-3.6-1.7-3.7-3.7v-4.2c0-1.9,1.5-3.5,3.5-3.5C56.4,273.3,56.4,273.3,56.5,273.3z"/>
<path class="st14" d="M53,273.2l19,0.5c2,0.1,3.5,1.7,3.6,3.7v4.1c0,1.9-1.5,3.5-3.5,3.5c0,0-0.1,0-0.1,0l-19-0.4
	c-2,0-3.7-1.7-3.7-3.7v-4.2c0-1.9,1.5-3.5,3.5-3.6C52.9,273.2,52.9,273.2,53,273.2z"/>
<rect x="114.4" y="90.3" class="st6" width="118.8" height="67.3"/>
<path class="st0" d="M237.4,153.9H118.1V86.1h119.3V153.9z M118.6,153.5h118.3V86.6H118.6L118.6,153.5z"/>
<rect x="120.6" y="95.7" class="st0" width="52.3" height="40.7"/>
<rect x="182.3" y="95.7" class="st0" width="21.2" height="17"/>
<rect x="206.6" y="95.7" class="st0" width="21.2" height="17"/>
<rect x="182.3" y="116.2" class="st0" width="20.5" height="0.7"/>
<rect x="206.9" y="116.2" class="st0" width="20.5" height="0.7"/>
<rect x="182.3" y="118.7" class="st0" width="20.5" height="0.7"/>
<rect x="206.9" y="118.7" class="st0" width="20.5" height="0.7"/>
<rect x="182.3" y="121.2" class="st0" width="20.5" height="0.7"/>
<rect x="206.9" y="121.2" class="st0" width="20.5" height="0.7"/>
<rect x="182.3" y="123.7" class="st0" width="20.5" height="0.7"/>
<rect x="206.9" y="123.7" class="st0" width="20.5" height="0.7"/>
<rect x="182.3" y="126.1" class="st0" width="20.5" height="0.7"/>
<rect x="206.9" y="126.1" class="st0" width="20.5" height="0.7"/>
<rect x="182.3" y="128.6" class="st0" width="20.5" height="0.7"/>
<rect x="206.9" y="128.6" class="st0" width="20.5" height="0.7"/>
<rect x="182.3" y="131.1" class="st0" width="20.5" height="0.7"/>
<rect x="206.9" y="131.1" class="st0" width="20.5" height="0.7"/>
<rect x="182.3" y="133.6" class="st0" width="20.5" height="0.7"/>
<rect x="206.9" y="133.6" class="st0" width="20.5" height="0.7"/>
<rect x="182.3" y="136" class="st0" width="20.5" height="0.7"/>
<rect x="206.9" y="136" class="st0" width="20.5" height="0.7"/>
<rect x="182.3" y="140.9" class="st0" width="45.2" height="7.2"/>
<rect x="120.8" y="140.9" class="st0" width="52.1" height="7.2"/>
<path class="st19" d="M385.1,125.6h-55.7c-3.6,0-6.5,2.9-6.5,6.5v21.7c0,3.6,2.9,6.5,6.5,6.5h2.7v10.2l4.6-10.2h48.3
	c3.6,0,6.5-2.9,6.5-6.5c0,0,0,0,0,0v-21.7C391.6,128.5,388.7,125.6,385.1,125.6C385.1,125.6,385.1,125.6,385.1,125.6z"/>
<rect x="328.8" y="132.4" class="st0" width="18.9" height="21.3"/>
<rect x="353.3" y="133.1" class="st0" width="32.6" height="0.4"/>
<rect x="353.3" y="137.1" class="st0" width="32.6" height="0.4"/>
<rect x="353.3" y="141.1" class="st0" width="32.6" height="0.4"/>
<rect x="353.3" y="145.1" class="st0" width="32.6" height="0.4"/>
<rect x="353.3" y="149.1" class="st0" width="32.6" height="0.4"/>
<rect x="353.3" y="153.2" class="st0" width="32.6" height="0.4"/>
<path class="st9" d="M145.9,166h55.7c3.6,0,6.5,2.9,6.5,6.5c0,0,0,0,0,0v21.7c0,3.6-2.9,6.5-6.5,6.5c0,0,0,0,0,0h-2.7v10.2
	l-4.6-10.2h-48.3c-3.6,0-6.5-2.9-6.5-6.5l0,0v-21.7C139.4,168.9,142.4,166,145.9,166z"/>
<rect x="183.3" y="172.7" class="st0" width="18.9" height="21.3"/>
<rect x="145.1" y="173.5" class="st0" width="32.6" height="0.4"/>
<rect x="145.1" y="177.5" class="st0" width="32.6" height="0.4"/>
<rect x="145.1" y="181.5" class="st0" width="32.6" height="0.4"/>
<rect x="145.1" y="185.5" class="st0" width="32.6" height="0.4"/>
<rect x="145.1" y="189.5" class="st0" width="32.6" height="0.4"/>
<rect x="145.1" y="193.5" class="st0" width="32.6" height="0.4"/>
<path class="st9" d="M416.2,74.2l6.1-1.5l-6.1-1.5c-1.9-0.5-3.3-1.9-3.8-3.8l-1.5-6.2l-1.5,6.2c-0.5,1.9-1.9,3.3-3.8,3.8l-6.1,1.5
	l6.1,1.5c1.9,0.5,3.3,1.9,3.8,3.8l1.5,6.2l1.5-6.2C412.9,76.1,414.4,74.6,416.2,74.2z"/>
<path class="st1" d="M93.6,126.7l4.5-1.1l-4.5-1.1c-1.4-0.3-2.4-1.4-2.8-2.8l-1.1-4.5l-1.1,4.5c-0.3,1.4-1.4,2.4-2.8,2.8l-4.5,1.1
	l4.5,1.1c1.4,0.3,2.4,1.4,2.8,2.8l1.1,4.5l1.1-4.5C91.1,128.1,92.2,127.1,93.6,126.7z"/>
<path class="st9" d="M221.7,75.2l3.6-0.9l-3.6-0.9c-1.1-0.3-1.9-1.1-2.2-2.2l-0.9-3.6l-0.9,3.6c-0.3,1.1-1.1,1.9-2.2,2.2l-3.6,0.9
	l3.6,0.9c1.1,0.3,2,1.1,2.2,2.2l0.9,3.6l0.9-3.6C219.7,76.3,220.6,75.4,221.7,75.2z"/>
<path class="st9" d="M53.9,104.7l5.7-1.4l-5.7-1.4c-1.7-0.4-3.1-1.8-3.5-3.5l-1.4-5.7l-1.4,5.7c-0.4,1.7-1.8,3.1-3.5,3.5l-5.7,1.4
	l5.7,1.4c1.7,0.4,3.1,1.8,3.5,3.5l1.4,5.7l1.4-5.7C50.8,106.5,52.1,105.1,53.9,104.7z"/>
<path class="st0" d="M297,38.6h-34.3c-2.8,0-5.1-2.3-5.1-5.1v-7.4c0-2.8,2.3-5.1,5.1-5.1H297c2.8,0,5.1,2.3,5.1,5.1v7.4
	C302.1,36.3,299.8,38.6,297,38.6L297,38.6z M262.7,22c-2.3,0-4.1,1.9-4.1,4.1v7.4c0,2.3,1.9,4.1,4.1,4.1H297c2.3,0,4.1-1.8,4.1-4.1
	c0,0,0,0,0,0v-7.4c0-2.3-1.8-4.1-4.1-4.1H262.7z"/>
</svg>
