<svg id="Слой_1" data-name="Слой 1" xmlns="http://www.w3.org/2000/svg" viewBox="0 0 2041.01 1584.9"><title>scorm2</title><rect width="2041.01" height="1584.9" style="fill:#fff"/><path d="M193.45,1346.24S-40.06,1095.51,154,824.07C326.12,583.22,526.83,599.69,674.09,697.42c62.72,41.63,243.55,5.13,397.46-239.94C1281.44,123.28,2009,326,1876.34,840.16c-64.2,248.83,195.37,257.87,63.11,506.6Z" style="fill:#dde8fd"/><rect x="263.25" y="1052.98" width="224.6" height="224.6" transform="translate(-689.9 562.19) rotate(-42.63)" style="fill:#d5e2fc"/><rect x="202.52" y="1076.67" width="224.6" height="45.23" transform="translate(-661.27 503.64) rotate(-42.63)" style="fill:#abc4f6"/><polygon points="864.78 355.57 978.1 371.74 902.9 320.48 899.08 336.91 871.52 341.9 864.78 355.57" style="fill:#6d89cf"/><polygon points="978.1 371.74 883.8 323.12 791.38 318.47 978.1 371.74" style="fill:#bed2fa"/><polygon points="902.9 320.48 978.1 371.74 919.89 291.63 902.9 320.48" style="fill:#bed2fa"/><path d="M1498.46,579.13,1470,599.58l-28.66-20.23a35.09,35.09,0,0,1,57.16-.22Z" style="fill:#fff"/><path d="M1470,514.66a84.71,84.71,0,0,0-69.34,36l18.09,12.7a62.66,62.66,0,0,1,102.2-.37l18-12.92A84.81,84.81,0,0,0,1470,514.66Z" style="fill:#fff"/><path d="M1470,419.92a179.23,179.23,0,0,0-146.73,76.21l18.09,12.7a157.34,157.34,0,0,1,256.61-1L1615.87,495A179.22,179.22,0,0,0,1470,419.92Z" style="fill:#fff"/><path d="M1470,471.76a128.23,128.23,0,0,0-104.64,54l18.09,12.71a106.3,106.3,0,0,1,172.65-.67L1574,525A128.19,128.19,0,0,0,1470,471.76Z" style="fill:#fff"/><path d="M878.72,703.24l-26.13-.6c8.39,10.88,10.28,20.91,5,29.39-5.23,8.65-17.74,15.76-36.41,21.16A337.69,337.69,0,0,0,358.82,330.88l-.05,0c-14.51-4.43-28.65-8.06-42.29-10.82-68.86-14-117.73-4.32-137.58,27.19-18.89,30-8.6,75.08,28.88,127.7v0A339.79,339.79,0,0,0,185.4,526.4C115,530.6,77.28,543,63.57,565.44c-15.94,26.13,5.82,61.2,75.48,95.3,9.6,4.72,19.88,9.34,30.67,14,8.35,73.32,41.75,144.39,96.56,199.2A337.58,337.58,0,0,0,814.54,769.73c34.36-7.11,57-18.25,66-33C886.77,726.55,886,715.24,878.72,703.24ZM798.09,758.5c-22.87,4.12-51.4,6.52-84.73,6.86-51.72.63-111.12-3.46-173.71-11.71q7.9-17.19,15.47-35.29a477.48,477.48,0,0,0,56.25,15.29c20.59,4.18,39.39,6.25,56.16,6.25,39.33,0,67.5-11.36,81.41-33.44a58,58,0,0,0,5.6-11.57h-20c-.34.61-.69,1.21-1.06,1.8-10.33,16.4-33.43,24.88-65.86,24.87-15.51,0-33.17-1.94-52.57-5.88a457.86,457.86,0,0,1-53-14.32q7.25-18.11,14.06-36.87c12.21-33.7,22.67-67.09,31.14-99.17,68.57,10.11,140.22,10.42,209,5.23a320,320,0,0,1,6.56,64.66A315.91,315.91,0,0,1,798.09,758.5ZM380.47,925.82c-9.75-3.54-14.7-17.53-17.14-28.65-3.85-17.57-4.54-42.24-2-71.35,1.28-14.73,3.34-30.38,6.11-46.76A869.34,869.34,0,0,1,485.5,819.91c-8.68,15-17.46,28.85-26.24,41.43-16.72,24-33.07,42.46-47.28,53.47C403,921.78,390.22,929.35,380.47,925.82ZM494.32,804.25a886.46,886.46,0,0,0-123.68-42.84q2.22-11.4,4.85-23.18,17.47,4,35.42,7.68c35,7.16,69.91,13.23,104.09,18.15Q504.85,785.06,494.32,804.25Zm-75.7-71q-20.28-4.17-39.94-8.71c6.16-25.65,13.74-52.4,22.58-79.65,46,28.25,92.7,51.24,137,67.55-5.55,13.25-11.25,26.18-17.08,38.69C487.53,746.28,453.13,740.3,418.62,733.23ZM306.36,386.93C331.91,439.27,381.15,482.4,434.13,511c-12.83,28-25.06,57.83-36.3,88.82q-3.15,8.67-6.13,17.31c-67.14-43.71-124-93.86-161.29-142.4v0A319.2,319.2,0,0,1,306.36,386.93Zm287.12-48.44c9.75,3.54,14.7,17.53,17.13,28.65,3.85,17.57,4.55,42.24,2,71.35-2.77,31.87-9.15,68.07-18.65,106.61-46.69-8-93.36-21.28-136.32-42.14,18.31-38.18,37.67-72.24,57-100,16.72-24,33.07-42.46,47.29-53.47,7.41-5.75,17.39-11.91,26.13-11.91A15.71,15.71,0,0,1,593.48,338.49Zm-4,224c-8.24,31-18.39,63.32-30.22,95.93q-6.84,18.86-14.14,37.07c-44.43-16.31-91.59-39.64-138-68.46q3.6-10.51,7.43-21.08c11-30.3,22.91-59.46,35.42-86.77C493.82,540.36,541.23,554.05,589.53,562.46ZM729.72,410.39a317,317,0,0,1,82.42,142.53c-73.28,5.36-140.43,3.68-200.45-5C621.21,509,627.62,472.38,630.44,440c3.1-35.71,2.72-78-11.76-101.81A316,316,0,0,1,729.72,410.39ZM505,317.26a318.16,318.16,0,0,1,64.85,6.61c-25,10.87-50.47,41.13-69.82,68.87-19.81,28.4-39.59,63.15-58.27,102.05-50.42-27.4-98.05-69.4-120.81-118.87A316.76,316.76,0,0,1,505,317.26ZM194.41,357c10.33-16.4,33.43-24.87,65.86-24.87,15.51,0,33.17,1.93,52.57,5.87q11.06,2.25,22.55,5.27h0A339,339,0,0,0,218,457.43v0C189.29,414.9,180.67,378.83,194.41,357ZM220.87,492.3v0c39.27,49.09,97.15,99.26,164.78,142.78-9.59,29.18-17.77,57.86-24.38,85.35C305.21,706.85,240,687.66,188.57,665.89a316.7,316.7,0,0,1,32.3-173.59ZM154.64,650.63C93.9,621,66.14,592.37,78.56,572.07c10-16.45,46.53-27.59,102.39-31.71-11.26,38-15.18,77.53-12.85,116.61C163.47,654.92,159,652.78,154.64,650.63Zm203.45,83.55q-2.61,11.6-4.8,22.84-5.85-1.42-11.7-2.76c-65.95-15-115.43-18.06-138.37-18.58a310.54,310.54,0,0,1-12.5-52.49C235.64,700.47,286.21,717.05,358.09,734.18ZM209.87,753.82c24.46,1,69.82,4.69,127.75,17.87q6.22,1.42,12.43,2.95c-3,17.39-5.18,34-6.54,49.63-2.58,29.59-2.76,63.71,5.5,88.08A319.55,319.55,0,0,1,209.87,753.82ZM408.58,938.29c23.52-12.33,47.15-40.64,65.35-66.72,9.38-13.46,18.76-28.35,28-44.42a898.1,898.1,0,0,1,153,88.49A318.42,318.42,0,0,1,408.58,938.29ZM729.72,860a315.32,315.32,0,0,1-57.82,45.84A916.77,916.77,0,0,0,510.73,811.5c7.75-14.2,15.39-29.21,22.85-44.87,51.62,6.84,101.23,11,146.53,12,11.83.34,23.31.34,34.45.26,28.87-.35,54.57-2.06,76.59-5.15A315.79,315.79,0,0,1,729.72,860Z" style="fill:#93b3f4"/><path d="M722.51,755.91l-46.67,554.94s-4.89,33.64,20.13,33.7c41.14.1,204.77,0,204.77,0s-31-7-30.59-22.76c.45-18.57,54.55-571.13,54.55-571.13Z" style="fill:#9e332e"/><path d="M914,1334.48c-8.09,0-164.38.51-204.45,0-17.46-.22-20.52-15.52-20.66-25.43a49.92,49.92,0,0,1,.53-8.26l1.21-14.43,3.09-36.76,2.74-32.48,3.51-41.73,3-35.23,33.16-394.32,202.19-5.25s-22.79,231.24-38.9,399.57c-1.8,18.75-3.52,36.74-5.1,53.52q-.76,8-1.49,15.71c-1.49,15.92-2.86,30.55-4,43.46-.63,6.8-1.21,13.13-1.73,18.92-2.06,22.7-3.26,37.2-3.28,40a23.64,23.64,0,0,0,.39,4.5C887.47,1333.9,911,1334.48,914,1334.48Z" style="fill:#ee6d6b"/><polygon points="231.47 453.94 345.15 910.58 360.72 973.12 413.67 1185.81 1397.37 1185.81 1202.21 453.94 231.47 453.94" style="fill:#ee6d6b"/><polygon points="231.47 453.93 215.71 459.19 392.72 1201.7 413.67 1185.82 231.47 453.93" style="fill:#ed6966"/><polygon points="392.72 1201.7 1370.37 1201.7 1397.37 1185.82 413.67 1185.82 392.72 1201.7" style="fill:#9e332e"/><rect x="736.04" y="1334.7" width="211.67" height="10.06" transform="translate(1683.76 2679.46) rotate(180)" style="fill:#ef7674"/><polygon points="1349.71 1050.95 1190.09 463.61 229.9 463.61 229.9 453.93 1202.21 453.93 1361.29 1049.65 1349.71 1050.95" style="fill:#ef7674"/><polygon points="893.91 1201.69 892.81 1209.38 693.75 1249.6 696.48 1217.12 697.78 1201.69 893.91 1201.69" style="fill:#9e332e"/><path d="M914,1334.48c-8.09,0-164.38.51-204.45,0-17.46-.22-20.52-15.52-20.66-25.43L887,1271.77c-2.06,22.7-3.26,37.2-3.28,40a23.64,23.64,0,0,0,.39,4.5C887.47,1333.9,911,1334.48,914,1334.48Z" style="fill:#9e332e;opacity:0.4"/><polygon points="845.79 1037.65 413.67 1185.82 360.72 973.12 845.79 1037.65" style="fill:#9e332e;opacity:0.4"/><polygon points="231.47 453.93 1202.21 453.93 1359.71 1042.13 372.9 1042.13 231.47 453.93" style="fill:#3662c1"/><path d="M931.6,1116.49c-2.81-14.43-16.77-26.12-31.2-26.12s-23.85,11.69-21,26.12,16.77,26.12,31.19,26.12S934.4,1130.92,931.6,1116.49Z" style="fill:#9e332e"/><polygon points="1313.93 1016.64 405.02 1016.64 302.09 606.6 294.2 575.16 287.47 548.34 282.08 526.86 271.68 485.44 1167.49 485.44 1168.11 487.72 1178.9 526.86 1184.82 548.34 1192.22 575.16 1200.89 606.6 1313.93 1016.64" style="fill:#dde8fd"/><polygon points="1313.93 1018.05 405.02 1018.05 302.09 608 294.2 576.56 287.47 549.74 282.08 528.26 271.68 486.84 1167.49 486.84 1168.11 489.12 1178.9 528.26 1184.82 549.74 1192.22 576.56 1200.89 608 1313.93 1018.05" style="fill:#dde8fd"/><polygon points="1178.9 526.86 282.08 526.86 271.68 485.44 1167.14 485.44 1168.11 487.72 1178.9 526.86" style="fill:#97b6f4"/><path d="M296.6,506.15c-1.08-4.34,1.56-7.86,5.9-7.86a10.74,10.74,0,0,1,9.82,7.86c1.09,4.34-1.56,7.86-5.9,7.86A10.74,10.74,0,0,1,296.6,506.15Z" style="fill:#dde8fd"/><path d="M322.72,506.15c-1.08-4.34,1.56-7.86,5.9-7.86a10.75,10.75,0,0,1,9.83,7.86c1.08,4.34-1.56,7.86-5.91,7.86A10.75,10.75,0,0,1,322.72,506.15Z" style="fill:#dde8fd"/><path d="M350.85,506.15c-1.08-4.34,1.56-7.86,5.9-7.86a10.73,10.73,0,0,1,9.82,7.86c1.09,4.34-1.55,7.86-5.9,7.86A10.74,10.74,0,0,1,350.85,506.15Z" style="fill:#dde8fd"/><path d="M688.16,1018.05H598.29c-.87-7-1.63-14.45-2.31-22.2-1.2-13.89-2.13-28.83-2.81-44.38-.16-3.58-.3-7.2-.44-10.84-.17-4.64-.32-9.33-.45-14-.22-8-.39-16.11-.52-24.25a0,0,0,0,1,0,0c-.15-10.39-.23-20.84-.25-31.26h0q0-3.9,0-7.8h0c0-2.45,0-4.88,0-7.3.08-22.42.42-44.41.9-64.86,1-45.24,2.71-82.94,3.6-101.06h0c.36-7.44.59-11.58.59-11.58h0c.2,0,1.56.28,3.71.8,1.57.38,3.57.91,5.84,1.61h0c2.05.61,4.31,1.38,6.7,2.28h0a78.18,78.18,0,0,1,12.51,6.05l.19.09c6.71,4.17,12.77,9.69,15.54,17,2.37,6.19,7.92,39.48,14.64,83.7q.27,1.89.57,3.81c3.54,23.48,7.38,49.83,11.23,76.73,4.08,28.5,8.16,57.62,11.92,84.6C682.7,978.25,685.67,999.81,688.16,1018.05Z" style="fill:#0b0754"/><path d="M663,1018.05H558.38c-2-8.63-3.89-17-5.56-24.77-4.59-21.52-7.62-39.15-7.45-48.63A14.17,14.17,0,0,1,550,934.06a22.75,22.75,0,0,1,7.49-4.42c8.83-3.35,21.5-3.9,34.78-3,4.51.28,9.08.72,13.59,1.26a397.61,397.61,0,0,1,48,9.17s1.54,6.25,3.36,17.16c1.38,8.18,2.9,19,4,31.78.66,7.43,1.19,15.52,1.49,24.14C662.79,1012.69,662.89,1015.35,663,1018.05Z" style="fill:#060632"/><path d="M614.68,944.78l-1,7.55L608.57,989l-.86,6.27-3.14,22.75h-109c-.85-15-1.63-29.69-1.78-42.46,0-1.42,0-2.81,0-4.17,0-19.23,1.69-33.49,7.2-37.1,6.25-4.08,27-3,49.06-.26q3.3.41,6.63.86c12.87,1.73,25.74,3.87,36.09,5.71,5.38,1,10.07,1.83,13.72,2.53C611.6,944.14,614.68,944.78,614.68,944.78Z" style="fill:#b15252"/><path d="M493.75,697.37s59.89-38.73,102.85-18.92c6.84,3.15,14.65,12,20.24,18.12,15.53,17.11,45.87,288.91,45.87,288.91s-86.13,29.17-169-9.9Z" style="fill:#fff"/><path d="M600,677.46s60.64,24.85,68.85,43.94,34.9,136.34,34.9,150.09-46.47,3.07-54-19.1c-6.21-18.41-27.17-75-38.22-110.76Z" style="fill:#0b0754"/><path d="M587.41,696.4c-13.23,2.59-32.68-.17-46.91-9.56,6.42-15.35,9.06-27.47,10-35.31,0-.42.09-.82.13-1.21a35.74,35.74,0,0,0,.17-8.09H585s9.35,4.28,9.35,7.23c0,1.58,0,3.1,0,4.54.07,3.94.23,7.37.43,10.32a93,93,0,0,0,1.76,14.13S600.78,693.78,587.41,696.4Z" style="fill:#fc9290"/><path d="M594.84,664.32c-25.92,5-41-9.16-44.34-12.79-.48-.52-.73-.83-.73-.83.27-.14.56-.26.86-.38,9.65-3.91,31.55-.8,43.78,3.68C594.48,657.94,594.64,661.37,594.84,664.32Z" style="fill:#fa7269"/><path d="M542,636.6c4.63,24.94,36.8,24.12,50.71,22.55,3.91-.44,6.37-.93,6.37-.93,4.41-1.18,6.87-8.13,8-17.23,2.27-18-.6-44.46-3.64-51.22-4.58-10.18-13.21-21.19-45.61-13.25S536.08,604.66,542,636.6Z" style="fill:#fc9290"/><path d="M604.69,575.86c-4.42-6.13-13.81-13.62-22.34-18.24-18.32-9.91-41.77.32-41.87.36-26.46,11.63-33.37,31.88-19.34,63.42,14.84,33.35,29,29.6,29,29.6s-3-1.87-2.73-12.26c0-.59,0-1.09.07-1.51a7,7,0,0,0-2.21-5.69c-3.28-2.93-4.89-11.81-2.13-14.28,3.32-3,8,.64,9.47,3.43a4.08,4.08,0,0,0,5.81,1.28c8.24-5.21,2.89-15.62,10.76-22s23.84-1,35.65-6.1C620.24,588.12,608,580.48,604.69,575.86Z" style="fill:#0b0754"/><path d="M608.94,1018.05H478.54c.93-27,2.13-59.33,3.39-92,.32-8.47.66-17,1-25.43.15-3.58.29-7.13.43-10.69,2.88-72.6,5.74-138.15,6.34-141.68,1.37-8,2.66-14.8,4.07-20.7,4.09-17.2,9.18-26.63,20.29-34.74,1.08-.82,10-5.29,17.78-9.19,6.39-3.18,12.08-6,12.25-6h0c1.29.62,2.71,2.42,4.22,5.09A85.72,85.72,0,0,1,553,693c6,15.31,12.4,38.74,16.87,56.24,0,0,0,0,0,.06v0h0c2.88,11.3,5,20.09,5.53,22.62,1,4.26,2.32,12.51,3.88,23.68v0c2.11,15.23,4.62,35.9,7.28,59.35h0c.28,2.41.55,4.85.83,7.31q.47,4.22,1,8.52h0l.3,2.78h0c1,9.29,2.06,18.87,3.08,28.62a0,0,0,0,0,0,0c.88,8,13.06,13.85,13.91,22,.06.59.13,1.8.2,3.47.16,3.47.35,9,.58,15.31.09,2.82.19,5.82.3,8.88.48,13.62,1.07,28.53,1.73,35.7q0,.51.09,1.29c.08,1.43.14,3.54.19,6.19C608.87,1000.84,608.93,1008.88,608.94,1018.05Z" style="fill:#0b0754"/><path d="M520,777.49c0,.17-2.08,73.41,53,82.31s18.49,11.25,18.49,11.25-103.66-4.41-105.37-7.15S520,777.49,520,777.49Z" style="fill:#060632"/><path d="M566.54,891.24s-1,.73-3,2a.33.33,0,0,0-.1.06c-8.41,5.37-33.36,20-69.68,29.8Q488,924.66,481.93,926c.32-8.48.66-17,1-25.43a104.39,104.39,0,0,1-13.66-1.89c.15-1.11.3-2.23.44-3.34,4.62-1.9,9.21-3.73,13.64-5.46,3.61-1.41,7.1-2.75,10.4-4,14.92-5.66,26-9.5,26-9.5l44.17,14Z" style="fill:#060632"/><path d="M578.23,890s-5.68,1.42-14.71,3.24l-.1,0c-16.66,3.35-44.66,8-69.68,7.79-3.69,0-7.31-.18-10.82-.46a104.39,104.39,0,0,1-13.66-1.89c-9.14-1.93-16.8-5.19-21.81-10.3-37.21-37.9,20.31-173.93,32.4-187.17C494,685.79,519.74,680.37,534,678.51l1.71-.22c5-.6,8.22-.72,8.39-.73h0s-1.11,3.59-3,9.67c-.73,2.36-1.57,5.09-2.49,8.13C529.87,724,513,780.24,505.57,812c-2.72,11.61-4.18,19.93-3.52,22.41,2.9,10.84,33,16.41,52,18.87,7.94,1,14,1.51,15.32,1.62a1.32,1.32,0,0,1,.28,0l1.1,4.51,2.64,10.84L576,880.87Z" style="fill:#0b0754"/><polygon points="682.01 955.22 554.21 949.84 580.14 790.57 707.94 795.96 682.01 955.22" style="fill:#ee6d6b"/><path d="M569.67,854.88s24.88-1.74,26.13,4.06c2.9,13.52-21.39,24.62-29.26,23.86S564,854,569.67,854.88Z" style="fill:#fc9290"/><path d="M701,828.3s-23.8-7.45-26.36-2.09c-6,12.47,15.12,28.89,22.95,30S706.73,828.74,701,828.3Z" style="fill:#fc9290"/><path d="M546.66,669.57s-10.46,5-15.71,12.51c0,0,39.12,67.92,38.95,67.29S556.67,678.27,546.66,669.57Z" style="fill:#060632"/><path d="M595.39,670.52c3.44,1.3,10.05,8.07,11.54,11.82l4.65,59.29s-9.93-43.51-15-63.18A32.9,32.9,0,0,1,595.39,670.52Z" style="fill:#060632"/><path d="M622.5,792.36s1-4.42,6.83-3.91,38.5,2.12,38.5,2.12,6.3-.1,5.72,3.94Z" style="fill:#b15252"/><path d="M585,642.23a13.62,13.62,0,0,0,11.08,2.67c4.06-.71,6.33-6,6.33-6S594.63,637.51,585,642.23Z" style="fill:#fff"/><polygon points="1190.58 691.79 1096.18 692.14 1065.57 574.94 1159.97 574.6 1190.58 691.79" style="fill:#fff"/><polygon points="1136.55 590 1096.97 590.14 1096.52 588.41 1136.1 588.26 1136.55 590" style="fill:#93b3f4"/><polygon points="1142.87 594.81 1093.18 595 1092.72 593.26 1142.42 593.08 1142.87 594.81" style="fill:#93b3f4"/><polygon points="1156.54 618.66 1091.99 618.9 1091.54 617.17 1156.08 616.93 1156.54 618.66" style="fill:#93b3f4"/><polygon points="1158.03 624.38 1093.48 624.62 1093.03 622.88 1157.58 622.64 1158.03 624.38" style="fill:#93b3f4"/><polygon points="1159.52 630.09 1094.97 630.33 1094.52 628.6 1159.07 628.36 1159.52 630.09" style="fill:#93b3f4"/><polygon points="1161.01 635.8 1096.47 636.04 1096.01 634.31 1160.56 634.07 1161.01 635.8" style="fill:#93b3f4"/><polygon points="1162.51 641.52 1097.96 641.76 1097.51 640.02 1162.05 639.79 1162.51 641.52" style="fill:#93b3f4"/><polygon points="1166.14 655.42 1101.59 655.66 1101.14 653.93 1165.69 653.69 1166.14 655.42" style="fill:#93b3f4"/><polygon points="1167.63 661.14 1103.08 661.38 1102.63 659.64 1167.18 659.4 1167.63 661.14" style="fill:#93b3f4"/><polygon points="1169.13 666.85 1104.58 667.09 1104.12 665.36 1168.67 665.12 1169.13 666.85" style="fill:#93b3f4"/><polygon points="1170.62 672.57 1106.07 672.81 1105.62 671.07 1170.16 670.83 1170.62 672.57" style="fill:#93b3f4"/><polygon points="1172.11 678.28 1107.56 678.52 1107.11 676.79 1171.66 676.55 1172.11 678.28" style="fill:#93b3f4"/><polygon points="1228.62 837.42 1134.22 837.77 1103.61 720.57 1198 720.22 1228.62 837.42" style="fill:#fff"/><polygon points="1174.59 735.62 1135.01 735.77 1134.56 734.03 1174.14 733.89 1174.59 735.62" style="fill:#93b3f4"/><polygon points="1180.91 740.44 1131.22 740.62 1130.76 738.89 1180.46 738.71 1180.91 740.44" style="fill:#93b3f4"/><polygon points="1194.58 764.29 1130.03 764.53 1129.57 762.79 1194.12 762.56 1194.58 764.29" style="fill:#93b3f4"/><polygon points="1196.07 770 1131.52 770.24 1131.07 768.51 1195.62 768.27 1196.07 770" style="fill:#93b3f4"/><polygon points="1197.56 775.72 1133.01 775.96 1132.56 774.22 1197.11 773.98 1197.56 775.72" style="fill:#93b3f4"/><polygon points="1199.05 781.43 1134.5 781.67 1134.05 779.94 1198.6 779.7 1199.05 781.43" style="fill:#93b3f4"/><polygon points="1200.55 787.15 1136 787.38 1135.54 785.65 1200.09 785.41 1200.55 787.15" style="fill:#93b3f4"/><polygon points="1204.18 801.05 1139.63 801.29 1139.18 799.56 1203.72 799.32 1204.18 801.05" style="fill:#93b3f4"/><polygon points="1205.67 806.77 1141.12 807 1140.67 805.27 1205.22 805.03 1205.67 806.77" style="fill:#93b3f4"/><polygon points="1207.16 812.48 1142.61 812.72 1142.16 810.98 1206.71 810.75 1207.16 812.48" style="fill:#93b3f4"/><polygon points="1208.65 818.2 1144.11 818.43 1143.65 816.7 1208.2 816.46 1208.65 818.2" style="fill:#93b3f4"/><polygon points="1210.15 823.91 1145.6 824.15 1145.15 822.41 1209.69 822.17 1210.15 823.91" style="fill:#93b3f4"/><polygon points="1266.91 984.02 1172.51 984.37 1141.9 867.18 1236.3 866.83 1266.91 984.02" style="fill:#fff"/><polygon points="1212.88 882.23 1173.3 882.38 1172.85 880.64 1212.43 880.49 1212.88 882.23" style="fill:#93b3f4"/><polygon points="1219.2 887.04 1169.51 887.23 1169.06 885.5 1218.75 885.31 1219.2 887.04" style="fill:#93b3f4"/><polygon points="1232.87 910.9 1168.32 911.13 1167.87 909.4 1232.42 909.16 1232.87 910.9" style="fill:#93b3f4"/><polygon points="1234.36 916.61 1169.81 916.85 1169.36 915.12 1233.91 914.88 1234.36 916.61" style="fill:#93b3f4"/><polygon points="1235.86 922.33 1171.31 922.56 1170.85 920.83 1235.4 920.59 1235.86 922.33" style="fill:#93b3f4"/><polygon points="1237.35 928.04 1172.8 928.28 1172.35 926.54 1236.89 926.3 1237.35 928.04" style="fill:#93b3f4"/><polygon points="1238.84 933.75 1174.29 933.99 1173.84 932.26 1238.39 932.02 1238.84 933.75" style="fill:#93b3f4"/><polygon points="1242.47 947.66 1177.92 947.9 1177.47 946.16 1242.02 945.92 1242.47 947.66" style="fill:#93b3f4"/><polygon points="1243.96 953.37 1179.42 953.61 1178.96 951.88 1243.51 951.64 1243.96 953.37" style="fill:#93b3f4"/><polygon points="1245.46 959.09 1180.91 959.33 1180.46 957.59 1245 957.35 1245.46 959.09" style="fill:#93b3f4"/><polygon points="1246.95 964.8 1182.4 965.04 1181.95 963.3 1246.5 963.07 1246.95 964.8" style="fill:#93b3f4"/><polygon points="1248.44 970.51 1183.89 970.75 1183.44 969.02 1247.99 968.78 1248.44 970.51" style="fill:#93b3f4"/><polygon points="1142.79 985.01 812.62 986.23 717.6 622.45 760.61 576.13 1035.72 575.12 1142.79 985.01" style="fill:#fff"/><polygon points="944.77 636.6 828.41 637.02 827.08 631.93 943.44 631.5 944.77 636.6" style="fill:#93b3f4"/><polygon points="963.35 650.76 817.26 651.3 815.93 646.2 962.02 645.66 963.35 650.76" style="fill:#93b3f4"/><polygon points="1003.52 720.87 813.76 721.57 812.43 716.47 1002.19 715.77 1003.52 720.87" style="fill:#93b3f4"/><polygon points="1007.91 737.67 818.15 738.37 816.82 733.27 1006.58 732.57 1007.91 737.67" style="fill:#93b3f4"/><polygon points="1012.3 754.47 822.54 755.17 821.21 750.07 1010.97 749.37 1012.3 754.47" style="fill:#93b3f4"/><polygon points="1016.68 771.27 826.93 771.97 825.6 766.87 1015.35 766.17 1016.68 771.27" style="fill:#93b3f4"/><polygon points="1021.07 788.06 831.32 788.76 829.99 783.67 1019.74 782.97 1021.07 788.06" style="fill:#93b3f4"/><polygon points="1031.75 828.94 841.99 829.64 840.66 824.54 1030.42 823.84 1031.75 828.94" style="fill:#93b3f4"/><polygon points="1036.14 845.74 846.38 846.44 845.05 841.34 1034.81 840.64 1036.14 845.74" style="fill:#93b3f4"/><polygon points="1040.53 862.54 850.77 863.24 849.44 858.14 1039.19 857.44 1040.53 862.54" style="fill:#93b3f4"/><polygon points="1044.91 879.34 855.16 880.04 853.83 874.94 1043.58 874.24 1044.91 879.34" style="fill:#93b3f4"/><polygon points="1049.3 896.13 859.54 896.84 858.21 891.74 1047.97 891.04 1049.3 896.13" style="fill:#93b3f4"/><polygon points="717.6 622.45 772.66 622.24 760.61 576.13 717.6 622.45" style="fill:#93b3f4"/><path d="M1503.65,1270.32H1244v-94.93h260.67a46.94,46.94,0,0,1,46.94,46.93h0A48,48,0,0,1,1503.65,1270.32Z" style="fill:#fff"/><path d="M1781.07,1214.44v14.29a41.59,41.59,0,0,1-41.6,41.58H1235.81a6,6,0,0,1-6-6v-2.14a6,6,0,0,1,6-6h307a39.79,39.79,0,0,0,4.31-6.47,38.68,38.68,0,0,0,4.5-18.15v-18.16a37.88,37.88,0,0,0-8.37-23.76H1235.81a6,6,0,0,1-6-6v-2.13a6,6,0,0,1,6-6H1742a39,39,0,0,1,39.06,39Z" style="fill:#3a49cd"/><path d="M1779.56,1203.68H1550.4a37.75,37.75,0,0,0-7.12-14.1H1235.81a6,6,0,0,1-6-6v-2.13a6,6,0,0,1,6-6H1742A39.06,39.06,0,0,1,1779.56,1203.68Z" style="fill:#3864c2"/><polygon points="1244.05 1222.85 1281.34 1224.45 1244.05 1225.41 1244.05 1222.85" style="fill:#ea8888"/><polygon points="1244.05 1237.75 1332.77 1239.34 1244.05 1240.3 1244.05 1237.75" style="fill:#ea8888"/><path d="M1308.15,1344h286.13v-73.84H1305.82a35.75,35.75,0,0,0-35.75,35.76h0A38.07,38.07,0,0,0,1308.15,1344Z" style="fill:#0b0754"/><path d="M1578,1344h325.49v-73.84H1577.17a36.5,36.5,0,0,0-36.5,36.5h0A37.33,37.33,0,0,0,1578,1344Z" style="fill:#fff"/><path d="M1518.92,1344H1914.8a5.53,5.53,0,0,0,5.52-5.53h0a5.52,5.52,0,0,0-5.52-5.52H1518.92a5.52,5.52,0,0,0-5.52,5.52h0A5.53,5.53,0,0,0,1518.92,1344Z" style="fill:#0b0754"/><path d="M1518.92,1281.16H1914.8a5.52,5.52,0,0,0,5.52-5.52h0a5.52,5.52,0,0,0-5.52-5.52H1518.92a5.52,5.52,0,0,0-5.52,5.52h0A5.52,5.52,0,0,0,1518.92,1281.16Z" style="fill:#0b0754"/><polygon points="1903.49 1307.04 1859.5 1308.28 1903.49 1309.03 1903.49 1307.04" style="fill:#ea8888"/><polygon points="1903.49 1290.04 1798.84 1291.29 1903.49 1292.03 1903.49 1290.04" style="fill:#ea8888"/><path d="M1799.92,1291a17.24,17.24,0,0,1,6,8.39,11.81,11.81,0,0,1,.46,2.91c.25,6.93,0,22.61,0,22.61l13.24-7.84,13.21,7.84V1303.7c0-4-1.13-7.93-3.24-10.49a5,5,0,0,0-3.66-2.17Z" style="fill:#3a49cd"/><path d="M1799.92,1291a17.24,17.24,0,0,1,6,8.39l26.53.31s-1-7.47-6.52-8.7Z" style="fill:#3662c1"/><path d="M1556.05,1175.59h280.84V1067.1H1554.83a53.63,53.63,0,0,0-53.63,53.63h0A54.86,54.86,0,0,0,1556.05,1175.59Z" style="fill:#fff"/><path d="M1508.07,1109.19v23.35a27.18,27.18,0,0,0,27.22,26.82h317.48a6.73,6.73,0,0,1,6.73,6.73v2.76a6.73,6.73,0,0,1-6.73,6.74H1304.32a46.46,46.46,0,0,1-46.45-46.45v-18.43a43.59,43.59,0,0,1,43.62-43.61h551.28a6.73,6.73,0,0,1,6.73,6.73v2.76a6.73,6.73,0,0,1-6.73,6.73H1534.32a26.28,26.28,0,0,0-19.31,8.43A25.83,25.83,0,0,0,1508.07,1109.19Z" style="fill:#a83f3f"/><polygon points="1836.89 1121.34 1796.19 1123.17 1836.89 1124.26 1836.89 1121.34" style="fill:#ea8888"/><polygon points="1836.89 1096.38 1740.07 1098.2 1836.89 1099.3 1836.89 1096.38" style="fill:#ea8888"/><path d="M1741.06,1097.84s6.39,3.44,8.51,9.09a10.35,10.35,0,0,1,.66,3.17c.35,7.51,0,24.51,0,24.51l18.87-8.5,18.81,8.5v-23a15.52,15.52,0,0,0-4.61-11.38,7.81,7.81,0,0,0-5.21-2.35Z" style="fill:#ee6d6b"/><path d="M1741.06,1097.84s6.39,3.44,8.51,9.09l37.8.34s-1.48-8.1-9.28-9.43Z" style="fill:#e75755"/><path d="M1549.63,1026.87c16.74,29.13,37.78,40.37,37.78,40.37H1675S1536.87,1004.66,1549.63,1026.87Z" style="fill:#060632"/><path d="M1616.88,1252.21a8.08,8.08,0,0,1,1.44,8.65.08.08,0,0,1,0,.05c-2.09,5.77-9,12.21-17,18.65-1,.83-1.94,1.58-2.73,2.27l-.61.55-.47.43c-7.48,6.89-4.66,8.47-18.09,22.44-15.31,15.93-25.85,16.22-28.85,14.77-2.53-1.24,2.62-9.69,8.33-19.18l.83-1.39c.76-1.26,1.52-2.54,2.27-3.81,6.7-11.43,5-16.79,3.39-33.79-1.29-13.83-21.5-77.21-21.5-77.21l29.34-5.06s8.83,50.48,18.57,58.25c5.2,4.15,11,4.2,16,7.27.36.21.7.43,1,.66A38.29,38.29,0,0,1,1616.88,1252.21Z" style="fill:#fc9290"/><path d="M1616.88,1252.21a8.08,8.08,0,0,1,1.44,8.65.08.08,0,0,1,0,.05c-2.56,5.76-9.28,12.18-17,18.59-1,.84-1.9,1.61-2.7,2.33l-.61.55-.47.43c-7.48,6.89-4.66,8.47-18.09,22.44-15.31,15.93-25.85,16.22-28.85,14.77-2.53-1.24,2.62-9.69,8.33-19.18a65.29,65.29,0,0,0,27.29-20.11c9.22-11.76,15.36-26.88,21.64-35.63.36.21.7.43,1,.66A38.29,38.29,0,0,1,1616.88,1252.21Z" style="fill:#060632"/><path d="M1380.32,1233.88c-1.81,9.06-14.72,7.55-29.14,4s-11,.67-31.52-1.6-26.75-9.93-27.37-13c-.56-2.71,9.58-3.66,20.46-4.92,1.37-.15,2.74-.32,4.11-.49,12.29-1.54,21.28-9.46,32.44-16,10.56-6.17,26.33-31.29,26.33-31.29l28.15,2.23s-14.77,22.44-20.48,32.19c-3.36,5.74-3.18,13.33-2.77,19.19A36.07,36.07,0,0,1,1380.32,1233.88Z" style="fill:#fc9290"/><path d="M1351.18,1237.9c-14.42-3.52-11,.67-31.52-1.6s-26.75-9.93-27.37-13c-.56-2.71,9.58-3.66,20.46-4.92l.1.21a57.86,57.86,0,0,0,29.39,9.14c13.93.34,28.68-3.65,38.29-3.49a36.07,36.07,0,0,1-.21,9.62C1378.51,1242.94,1365.6,1241.43,1351.18,1237.9Z" style="fill:#060632"/><path d="M1488.19,1053.9l26.32,70.8,34.35,92.46a55.62,55.62,0,0,0,18.25-1.67c8.22-2.38,17.65-8.59,17.65-8.59s-9.54-99.27-27.33-156.25c-4.56-14.63-9.68-26.46-15.32-33.12C1514.53,984.93,1488.19,1053.9,1488.19,1053.9Z" style="fill:#060632"/><path d="M1514.94,941.45c17.24-5.56,66.41,1.57,115.8,11.24l10.34-17.05,106.69-8.33s35.2,78.06,15.93,127.81c-2.83,7.31-8.46,12-18.06,12.15h-1.56l-84.11,0c-53,0-112.28-36.47-119.94-38-12.54-2.51-17.56,22.58-30.1,48.91s-117.88,116.63-117.88,116.63-16.2.16-22.88-2.35c-7.2-2.69-9.83-6.2-9.83-6.2S1476.07,954,1514.94,941.45Z" style="fill:#0b0754"/><path d="M1641.71,788.72c38,20.92,115.06,64.28,115.46,64,0,0,28.32,10.67,44.4,0,26.78-17.79,41.14-65.66-7.84-106.86-24.43-20.55-41.78-25.55-44.42-58.36-1.43-17.8-25.76-76.54-66.19-71.11-3.38.46-24.17,1.43-37.84,8.6C1610.46,643.28,1584.76,780.62,1641.71,788.72Z" style="fill:#0b0754"/><path d="M1673.55,770.91c-.16.11,18.69,6.55,31.3,1,11.87-5.25,20.85-24.77,20.68-24.77-5.4-.25-11.32-5-15.89-35.93l-2.29.82-38.64,13.91s2.8,12.39,4.61,24.2C1674.84,760,1675.66,769.51,1673.55,770.91Z" style="fill:#fc9290"/><path d="M1668.71,725.91s2.8,12.39,4.61,24.2c22.19-4,30.9-26.11,34-38.11Z" style="fill:#fa7d75"/><path d="M1663,738.21s52.86-7.09,47.93-40-1.42-55.89-35.38-52.75-38.62,16.66-39.64,28S1649.08,739.21,1663,738.21Z" style="fill:#fc9290"/><path d="M1637.79,655.53s33.84,29.16,56.86,31.51,31.73-5,31.73-5a89.92,89.92,0,0,1-21.73-29.44,16.16,16.16,0,0,0-13.34-9.54C1674.87,641.6,1643.72,641,1637.79,655.53Z" style="fill:#0b0754"/><path d="M1659,652.92s-11.32,10.94-14.89,19.06c-3.44,7.83-4.47,26.57-1.73,34,0,0-17.64-34.3-7.65-51C1645.27,637.37,1659,652.92,1659,652.92Z" style="fill:#0b0754"/><path d="M1629,848.79c1.6,107,.44,84.64,12.14,94.8,2.82,2.44,10.75,3.9,21.19,4.59,32.81,2.18,90.49-3.23,92.68-9.29,7.57-21,2.23-27.5,8.54-59.63.66-3.41,1.48-7.11,2.43-11.14,5.27-22.06,10.39-29.57-8.29-65-16.94-32.11-34.53-58.17-36.12-57.23-44.68,26.53-48.29,4.23-48.29,4.23S1628.26,796.59,1629,848.79Z" style="fill:#fff"/><path d="M1514.51,1124.7l34.35,92.46a55.62,55.62,0,0,0,18.25-1.67c8.22-2.38,17.65-8.59,17.65-8.59s-9.54-99.27-27.33-156.25Z" style="fill:#0b0754"/><path d="M1673.32,750.11s-46,7.79-51.38,27.59-37.18,136.19-37.18,136.19,23.38,4.2,34.18-6.6,37.57-100.19,37.57-100.19Z" style="fill:#fff"/><path d="M1662.37,948.18c32.81,2.18,90.49-3.23,92.68-9.29,7.57-21,2.23-27.5,8.54-59.63l-15.82-44.56s2.61,49.62-12,62.68-59.92,25.19-67,36.1C1665.28,938.71,1663,944,1662.37,948.18Z" style="fill:#dfe9fd"/><path d="M1700,927.31s-32.37-7.21-37.59-4.34-18,13.33-19.59,17,11.63-2.77,15.93-3.92c2.79-.75,10.12,1.8,13.75,3,15.28,5.09,24.64,2.47,24.64,2.47Z" style="fill:#fc9290"/><path d="M1721.64,745.86s43.47,2.68,58.51,23.66c21.19,29.55,63.2,155.45,39.12,172.24-27.12,18.91-123.42,5-123.42,5s-3.21-15,1.25-22.23,76.92-19,80.27-22.29-41.81-65.22-41.81-75.25S1721.64,745.86,1721.64,745.86Z" style="fill:#fff"/><path d="M1660.8,932s-6.78,8.75-9,9.79a6.66,6.66,0,0,1-3.67.79l4.58-8.23Z" style="fill:#fc9290"/><path d="M1662.37,923l-19.72,9.58s.84,1.37,3.27,1.26,8.55-2.35,8.55-2.35Z" style="fill:#fc9290"/><polygon points="1651.8 955.18 1495.8 955.18 1448.88 838.49 1604.63 838.49 1651.8 955.18" style="fill:#ee6d6b"/><polygon points="1493.97 950.63 1699.96 950.63 1699.96 955.18 1495.8 955.18 1493.97 950.63" style="fill:#e75755"/><path d="M1535.18,896.83c-1.17-4.1,1.2-7.43,5.3-7.43a10.66,10.66,0,0,1,9.56,7.43c1.17,4.1-1.2,7.43-5.3,7.43A10.66,10.66,0,0,1,1535.18,896.83Z" style="fill:#fff"/><path d="M234.25,1001l-3.32,2.3a7.83,7.83,0,0,1-10.89-2l-19.32-27.87a7.83,7.83,0,0,1,2-10.89l4.76-3.3a1.53,1.53,0,1,1,1.74,2.51l-4.75,3.3a4.78,4.78,0,0,0-1.21,6.63l19.32,27.88a4.78,4.78,0,0,0,6.63,1.2l3.33-2.31a4.77,4.77,0,0,0,1.2-6.62l-12.83-18.51a1.53,1.53,0,0,1,2.52-1.74l12.82,18.5A7.83,7.83,0,0,1,234.25,1001Z" style="fill:#97b6f4"/><path d="M255.43,1028.49l-6,4.13c-5.53,3.83-13.36,2.13-17.47-3.79L203,986.92a1.53,1.53,0,0,1,2.52-1.75l29.05,41.91c3.14,4.54,9.07,5.89,13.21,3l6-4.12c4.15-2.87,5-8.9,1.81-13.44l-33.08-47.73c-3.15-4.54-9.07-5.9-13.22-3a1.53,1.53,0,1,1-1.74-2.51c5.53-3.83,13.37-2.13,17.47,3.79L258,1010.8C262.12,1016.72,261,1024.66,255.43,1028.49Z" style="fill:#97b6f4"/><path d="M295.39,1247.38l.71,5.9a11.53,11.53,0,0,1-10,12.82l-49.53,6a11.54,11.54,0,0,1-12.82-10l-1-8.46a2.25,2.25,0,1,1,4.47-.54l1,8.45a7,7,0,0,0,7.8,6.12l49.53-6a7,7,0,0,0,6.11-7.8l-.72-5.9a7,7,0,0,0-7.8-6.11l-32.88,4a2.25,2.25,0,1,1-.54-4.47l32.88-4A11.53,11.53,0,0,1,295.39,1247.38Z" style="fill:#97b6f4"/><path d="M345.7,1238.68l1.28,10.59c1.19,9.82-6.4,18.86-16.93,20.13l-74.47,9A2.25,2.25,0,1,1,255,1274l74.47-9c8.06-1,13.89-7.76,13-15.12l-1.29-10.58c-.89-7.36-8.17-12.55-16.24-11.58L240.16,1238c-8.06,1-13.89,7.76-13,15.12a2.25,2.25,0,1,1-4.47.54c-1.2-9.82,6.4-18.86,16.93-20.13l84.82-10.3C335,1221.9,344.5,1228.86,345.7,1238.68Z" style="fill:#97b6f4"/><path d="M1139.45,546.43a6.87,6.87,0,1,1,6.86,6.87A6.86,6.86,0,0,1,1139.45,546.43Z" style="fill:#ee6d6b"/></svg>