<?xml version="1.0" encoding="utf-8"?>
<!-- Generator: Adobe Illustrator 25.2.3, SVG Export Plug-In . SVG Version: 6.00 Build 0)  -->
<svg version="1.1" id="Capa_1" xmlns="http://www.w3.org/2000/svg" xmlns:xlink="http://www.w3.org/1999/xlink" x="0px" y="0px"
	 viewBox="0 0 241.4 51" style="enable-background:new 0 0 241.4 51;" xml:space="preserve">
<style type="text/css">
	.st0{fill:#02A9F7;}
	.st1{fill:#25539E;}
	.st2{fill:#333333;}
</style>
<g id="Capa_2_1_">
	<g id="Capa_1-2">
		<path class="st0" d="M152.6,13.7H148v24h-3.8v-24h-4.6V9.9h4.6V0.8h3.8v9.1h4.6V13.7z"/>
		<path class="st0" d="M159.3,25.8c0.9,4.8,5.1,8.3,10,8.3c1.7,0,3.4-0.4,4.9-1.3c1.5-0.8,2.8-2,3.7-3.5l3.3,1.9c-1.2,2-3,3.7-5,4.9
			c-4.3,2.5-9.6,2.4-13.8-0.1c-6.7-3.9-9-12.5-5.1-19.1c1.2-2.1,3-3.9,5.1-5.1c4.3-2.5,9.6-2.5,14,0c2.1,1.2,3.9,3,5.1,5.1
			c1.3,2.1,1.9,4.6,1.9,7c0,0.4,0,1.1-0.1,1.9L159.3,25.8z M164.5,14.8c-1.5,0.7-2.8,1.8-3.8,3.1c-0.9,1.2-1.4,2.7-1.4,4.2h19.9
			c0-1.5-0.5-3-1.4-4.2c-1-1.3-2.3-2.4-3.8-3.1C171,13.3,167.5,13.3,164.5,14.8z"/>
		<path class="st0" d="M211.7,33c-1.3,1.5-2.9,2.8-4.7,3.6c-4.1,1.9-9,1.7-12.9-0.6c-6.7-3.8-9.1-12.4-5.2-19.1s12.4-9.1,19.1-5.2
			c1.5,0.8,2.7,1.9,3.8,3.2l-3.4,2c-0.9-1-2-1.7-3.3-2.3c-1.3-0.5-2.6-0.8-4-0.8c-1.8,0-3.5,0.4-5.1,1.3c-1.5,0.9-2.8,2.2-3.7,3.7
			c-1.8,3.2-1.8,7.1,0,10.2c2.6,4.5,8.1,6.3,12.8,4.2c1.2-0.5,2.3-1.3,3.3-2.3L211.7,33z"/>
		<path class="st0" d="M233.2,11.1c3.4,2,5.5,5.6,5.4,9.5v17h-3.8v-17c0-1.3-0.3-2.5-1-3.6c-0.6-1.1-1.5-2-2.6-2.6
			c-1.1-0.6-2.3-1-3.6-1c-1.2,0-2.5,0.3-3.5,0.9c-1.1,0.6-2,1.5-2.6,2.6c-0.6,1.1-1,2.3-1,3.6v17h-3.8v-37h3.8v12.1
			c0.9-1,2-1.8,3.2-2.3c1.3-0.5,2.6-0.8,4-0.8C229.6,9.7,231.5,10.2,233.2,11.1z"/>
		<path class="st1" d="M43.8,4.1c-6.9-6.9-21.5-3.5-32.5,7.6S-3.2,37.4,3.7,44.3s21.5,3.5,32.5-7.6S50.7,11,43.8,4.1z M33.7,34.1
			C24,43.8,11.8,47.2,6.3,41.7s-2.1-17.8,7.5-27.4S35.7,1.2,41.2,6.7S43.3,24.4,33.7,34.1z"/>
		<path class="st0" d="M6.1,6.8c5.4-5.5,17.7-2.3,27.4,7.3c3,2.9,5.5,6.3,7.5,9.9c0.7-1.4,1.3-2.8,1.8-4.2c-1.9-3-4.1-5.9-6.7-8.4
			C25,0.5,10.4-2.7,3.5,4.3c-4.5,4.6-4.6,12.2-1,20c0.6-1.4,1.4-2.8,2.2-4.2C2.8,14.7,3.2,9.8,6.1,6.8z"/>
		<path class="st0" d="M42.8,28.3c1.8,5.4,1.5,10.3-1.4,13.2C36,47.1,23.7,43.8,14,34.2c-3-2.9-5.5-6.3-7.5-9.9
			c-0.7,1.4-1.3,2.8-1.8,4.2c1.9,3,4.1,5.8,6.6,8.3c11.2,11,25.8,14.2,32.6,7.3c4.4-4.5,4.6-12.1,1-20
			C44.4,25.5,43.6,26.9,42.8,28.3z"/>
		<path class="st2" d="M66.5,26c0.5,2.3,1.7,4.4,3.5,5.9c4.2,3.6,10.6,3.1,14.2-1.2c0.3-0.4,0.6-0.8,0.9-1.2l3.3,1.9
			c-1.2,2-3,3.7-5,4.9c-4.3,2.5-9.6,2.4-13.8-0.1c-6.7-3.9-9-12.4-5.1-19.1c1.2-2.1,3-3.9,5.1-5.1c4.3-2.5,9.6-2.5,13.9,0
			c2.1,1.2,3.9,3,5.1,5.1c1.2,2.1,1.9,4.5,1.9,7c0,0.4,0,1.1-0.1,1.9L66.5,26z M71.7,15c-1.5,0.7-2.8,1.8-3.8,3.1
			c-0.9,1.2-1.4,2.7-1.5,4.2h19.9c0-1.5-0.5-3-1.4-4.2c-1-1.3-2.3-2.4-3.8-3.1C78.2,13.5,74.7,13.5,71.7,15L71.7,15z"/>
		<path class="st2" d="M99.2,0.9v36.9h-3.8V0.9H99.2z"/>
		<path class="st2" d="M108.9,3.1c0.2,0.2,0.4,0.5,0.6,0.8c0.1,0.3,0.2,0.6,0.2,0.9c0,0.3-0.1,0.6-0.2,0.9c-0.1,0.3-0.3,0.6-0.5,0.8
			c-0.2,0.2-0.5,0.4-0.8,0.5c-0.3,0.1-0.6,0.2-0.9,0.2c-1.4,0-2.5-1.1-2.5-2.4c0,0,0-0.1,0-0.1c0-0.3,0-0.6,0.1-0.9
			c0.1-0.3,0.3-0.5,0.5-0.8c0.2-0.2,0.5-0.4,0.8-0.5C107.2,2.1,108.2,2.4,108.9,3.1L108.9,3.1z M109.1,10.1v27.8h-3.8V10.1
			L109.1,10.1z"/>
		<path class="st2" d="M127.7,24.2l16,26.3h-4.5l-13.7-22.6l-6.1,9.9h-4.5l8.3-13.6l-8.5-14h4.5l6.4,10.4l6.3-10.4h4.5L127.7,24.2z"
			/>
	</g>
</g>
</svg>
