<svg id="_лой_1" data-name="‘лой_1" xmlns="http://www.w3.org/2000/svg" viewBox="0 0 3200 2724.9"><title>learning</title><rect width="3200" height="2724.9" style="fill:#fff"/><rect y="391.84" width="3200" height="2000" style="fill:#fff"/><path d="M336.91,2237.7l903.9-4.69,240.93-.07,79.82,0,241.4-.07,1102.85-.3s252.26-323.47-17.19-630.7c-279.38-318.53-415.22-59.12-501.09-507.49C2171.37-34.27,34.23,622.61,594.78,1583,796.62,1928.84,197.48,1745,336.91,2237.7Z" style="fill:#ebf3fa"/><path d="M1168.47,2002.16l-4.89-2.68a10.79,10.79,0,0,1-4.28-14.64l22.45-41a10.8,10.8,0,0,1,14.65-4.28l7,3.83a2.11,2.11,0,1,1-2,3.7l-7-3.83a6.57,6.57,0,0,0-8.91,2.61l-22.46,41a6.57,6.57,0,0,0,2.61,8.91l4.89,2.67a6.57,6.57,0,0,0,8.91-2.6l14.9-27.22a2.11,2.11,0,0,1,3.71,2l-14.91,27.23A10.81,10.81,0,0,1,1168.47,2002.16Z" style="fill:#afcdfb"/><path d="M1147.63,2045.22l-8.76-4.8c-8.13-4.45-10.87-15.17-6.1-23.88l33.76-61.66a2.11,2.11,0,0,1,3.71,2l-33.76,61.66c-3.66,6.67-1.67,14.81,4.42,18.15l8.76,4.8c6.09,3.33,14,.62,17.68-6l38.45-70.23c3.66-6.68,1.67-14.82-4.42-18.16a2.11,2.11,0,1,1,2-3.7c8.13,4.45,10.87,15.17,6.1,23.88L1171,2037.49C1166.27,2046.21,1155.77,2049.68,1147.63,2045.22Z" style="fill:#afcdfb"/><rect x="868.32" y="775.65" width="1171.24" height="998.42" rx="47.87" ry="47.87" style="fill:#fff;opacity:0.6000000000000001"/><path d="M904.06,775.65H2003.82a35.74,35.74,0,0,1,35.74,35.74v75a0,0,0,0,1,0,0H868.32a0,0,0,0,1,0,0v-75A35.74,35.74,0,0,1,904.06,775.65Z" style="fill:#699dee"/><path d="M915.68,830.38a13.25,13.25,0,1,1,13.25,13.25A13.25,13.25,0,0,1,915.68,830.38Z" style="fill:#dde7fe"/><path d="M971.28,830.38a13.25,13.25,0,1,1,13.24,13.25A13.24,13.24,0,0,1,971.28,830.38Z" style="fill:#dde7fe"/><path d="M1026.87,830.38a13.25,13.25,0,1,1,13.24,13.25A13.24,13.24,0,0,1,1026.87,830.38Z" style="fill:#dde7fe"/><rect x="961.14" y="974.35" width="332.01" height="332.01" style="fill:#cde0fb;opacity:0.5"/><path d="M1647.51,999.1H1383.42a12.55,12.55,0,0,1-12.55-12.55h0A12.55,12.55,0,0,1,1383.42,974h264.09a12.54,12.54,0,0,1,12.54,12.55h0A12.54,12.54,0,0,1,1647.51,999.1Z" style="fill:#7c9af2;opacity:0.5"/><path d="M1963.3,982.27H1699.22a12.55,12.55,0,0,1-12.55-12.55h0a12.54,12.54,0,0,1,12.55-12.54H1963.3a12.54,12.54,0,0,1,12.55,12.54h0A12.55,12.55,0,0,1,1963.3,982.27Z" style="fill:#7c9af2;opacity:0.5"/><g style="opacity:0.30000000000000004"><path d="M1699.78,1095.69H1379a8.13,8.13,0,0,1-8.14-8.13h0a8.13,8.13,0,0,1,8.14-8.13h320.77a8.13,8.13,0,0,1,8.13,8.13h0A8.13,8.13,0,0,1,1699.78,1095.69Z" style="fill:#bdd1f9"/><path d="M1821.73,1095.69h-84.68a8.13,8.13,0,0,1-8.13-8.13h0a8.13,8.13,0,0,1,8.13-8.13h84.68a8.13,8.13,0,0,1,8.13,8.13h0A8.13,8.13,0,0,1,1821.73,1095.69Z" style="fill:#bdd1f9"/><path d="M1500,1146.13H1379a8.13,8.13,0,0,1-8.14-8.13h0a8.13,8.13,0,0,1,8.14-8.14h121a8.13,8.13,0,0,1,8.13,8.14h0A8.13,8.13,0,0,1,1500,1146.13Z" style="fill:#bdd1f9"/><path d="M1696.08,1146.13H1530.23a8.13,8.13,0,0,1-8.13-8.13h0a8.13,8.13,0,0,1,8.13-8.14h165.85a8.13,8.13,0,0,1,8.13,8.14h0A8.13,8.13,0,0,1,1696.08,1146.13Z" style="fill:#bdd1f9"/><path d="M1821.73,1146.13h-84.68a8.13,8.13,0,0,1-8.13-8.13h0a8.13,8.13,0,0,1,8.13-8.14h84.68a8.13,8.13,0,0,1,8.13,8.14h0A8.13,8.13,0,0,1,1821.73,1146.13Z" style="fill:#bdd1f9"/><path d="M1543.23,1189.74H1379a8.13,8.13,0,0,1-8.14-8.13h0a8.13,8.13,0,0,1,8.14-8.13h164.22a8.13,8.13,0,0,1,8.14,8.13h0A8.13,8.13,0,0,1,1543.23,1189.74Z" style="fill:#bdd1f9"/><path d="M1856.84,1189.74h-268.6a8.13,8.13,0,0,1-8.13-8.13h0a8.13,8.13,0,0,1,8.13-8.13h268.6a8.13,8.13,0,0,1,8.13,8.13h0A8.13,8.13,0,0,1,1856.84,1189.74Z" style="fill:#bdd1f9"/></g><g style="opacity:0.30000000000000004"><path d="M1699.78,1255.92H1379a8.13,8.13,0,0,1-8.14-8.13h0a8.13,8.13,0,0,1,8.14-8.13h320.77a8.13,8.13,0,0,1,8.13,8.13h0A8.13,8.13,0,0,1,1699.78,1255.92Z" style="fill:#bdd1f9"/><path d="M1821.73,1255.92h-84.68a8.13,8.13,0,0,1-8.13-8.13h0a8.13,8.13,0,0,1,8.13-8.13h84.68a8.13,8.13,0,0,1,8.13,8.13h0A8.13,8.13,0,0,1,1821.73,1255.92Z" style="fill:#bdd1f9"/><path d="M1500,1306.36H1379a8.13,8.13,0,0,1-8.14-8.13h0a8.13,8.13,0,0,1,8.14-8.13h121a8.13,8.13,0,0,1,8.13,8.13h0A8.13,8.13,0,0,1,1500,1306.36Z" style="fill:#bdd1f9"/><path d="M1696.08,1306.36H1530.23a8.13,8.13,0,0,1-8.13-8.13h0a8.13,8.13,0,0,1,8.13-8.13h165.85a8.13,8.13,0,0,1,8.13,8.13h0A8.13,8.13,0,0,1,1696.08,1306.36Z" style="fill:#bdd1f9"/></g><path d="M1110,1023.84h34.29l92.63,212h-39.1l-21.35-50.82h-99.56l-21.65,50.82h-37.9Zm52.93,128.43-36.39-84.21-36.09,84.21Z" style="fill:#bdd1f9"/><rect x="961.14" y="1373.24" width="185.46" height="35.8" style="fill:#f99746"/><rect x="961.14" y="1409.04" width="185.46" height="35.8" style="fill:#ed7d2b"/><rect x="961.14" y="1444.85" width="185.46" height="35.8" style="fill:#474fea"/><path d="M1283.25,1393.51h-102a7.74,7.74,0,0,1-7.74-7.73h0a7.75,7.75,0,0,1,7.74-7.74h102a7.74,7.74,0,0,1,7.73,7.74h0A7.73,7.73,0,0,1,1283.25,1393.51Z" style="fill:#bdd1f9"/><path d="M1248.87,1420.76h-67.66a7.74,7.74,0,0,1-7.74-7.73h0a7.74,7.74,0,0,1,7.74-7.73h67.66a7.73,7.73,0,0,1,7.73,7.73h0A7.73,7.73,0,0,1,1248.87,1420.76Z" style="fill:#bdd1f9"/><rect x="961.14" y="1558.36" width="185.46" height="73.16" style="fill:#f99746"/><rect x="961.14" y="1613.45" width="185.46" height="52.32" style="fill:#b5453c"/><polygon points="961.14 1558.36 1027.67 1614.25 961.14 1665.77 961.14 1558.36" style="fill:#474fea"/><path d="M1283.25,1578.63h-102a7.74,7.74,0,0,1-7.74-7.73h0a7.74,7.74,0,0,1,7.74-7.73h102a7.73,7.73,0,0,1,7.73,7.73h0A7.73,7.73,0,0,1,1283.25,1578.63Z" style="fill:#bdd1f9"/><path d="M1248.87,1605.88h-67.66a7.74,7.74,0,0,1-7.74-7.73h0a7.74,7.74,0,0,1,7.74-7.73h67.66a7.73,7.73,0,0,1,7.73,7.73h0A7.73,7.73,0,0,1,1248.87,1605.88Z" style="fill:#bdd1f9"/><path d="M2051.38,866.07s4.83,57.57-8.28,56.7-39-26.22-91.27-22.09-116.2,15.55-154.85-52.84,49.43-88.09,49.43-88.09l205,106.32Z" style="fill:#233862"/><polygon points="1940.3 861.86 2203.62 883.51 2209.09 871.8 1956.64 685.44 1701.63 655.65 1696.73 666.13 1940.3 861.86 1940.3 861.86" style="fill:#2b478b"/><path d="M2119.5,1060.17a10.21,10.21,0,1,0-7,12.62,10.22,10.22,0,0,0,7-12.62Z" style="fill:#f99746"/><path d="M2110.72,1063c10.56-.82,13,95.28,13,95.28s-6.89,3.24-10.27,2.48-5.12-13.74-5.12-13.74l-.32,13.6s-11.59.41-15.6-2.41c0,0,1.57-93.91,18.28-95.21Z" style="fill:#f99746"/><polygon points="2114.16 1065.16 2112.25 855.21 2110.89 854.19 1973.35 752.44 1968.41 759.13 2104.58 859.86 2107.66 1064.8 2114.16 1065.16" style="fill:#f99746"/><path d="M1713.14,1835.92h580.41a84.94,84.94,0,0,1,84.94,84.94v48a86.87,86.87,0,0,1-86.87,86.87H1713.14a0,0,0,0,1,0,0V1835.92A0,0,0,0,1,1713.14,1835.92Z" style="fill:#fcecdb"/><path d="M2874.73,1926.35v33.07a101,101,0,0,1-12.2,48.44c-15.59,28.61-44.58,47.85-77.77,47.85H1695.32c-7.21,0-13-6.25-13-14v-5c0-7.7,5.84-14,13-14h664.11a91.12,91.12,0,0,0,9.32-15,94.44,94.44,0,0,0,9.74-42v-42a93.41,93.41,0,0,0-2.69-22.37,90.32,90.32,0,0,0-15.4-32.63H1695.32c-7.21,0-13-6.25-13-14v-4.94c0-7.72,5.84-14,13-14H2790.25c38.58,0,71.12,27.69,81.22,65.51A95.87,95.87,0,0,1,2874.73,1926.35Z" style="fill:#699dee"/><path d="M2871.47,1901.43H2375.8a90.32,90.32,0,0,0-15.4-32.63H1695.32c-7.21,0-13-6.25-13-14v-4.94c0-7.72,5.84-14,13-14H2790.25C2828.83,1835.92,2861.37,1863.61,2871.47,1901.43Z" style="fill:#548ee2"/><polygon points="1713.14 1945.82 1793.8 1949.52 1713.14 1951.74 1713.14 1945.82" style="fill:#f4d2b8"/><polygon points="1713.14 1980.31 1905.05 1984 1713.14 1986.23 1713.14 1980.31" style="fill:#f4d2b8"/><path d="M1546.57,2055.25h567.87a82,82,0,0,1,82,82v11.88a77,77,0,0,1-77,77H1546.57a0,0,0,0,1,0,0v-171A0,0,0,0,1,1546.57,2055.25Z" transform="translate(3743.05 4281.46) rotate(180)" style="fill:#f99746"/><path d="M2089,2055.25h647.21a80.1,80.1,0,0,1,80.1,80.1v12.53a78.33,78.33,0,0,1-78.33,78.33H2089a0,0,0,0,1,0,0v-171A0,0,0,0,1,2089,2055.25Z" transform="translate(4905.35 4281.46) rotate(180)" style="fill:#fcecdb"/><rect x="2034.36" y="2200.64" width="815.71" height="25.57" rx="11.9" ry="11.9" transform="translate(4884.43 4426.85) rotate(180)" style="fill:#f99746"/><rect x="2034.36" y="2055.25" width="815.71" height="25.57" rx="11.9" ry="11.9" transform="translate(4884.43 4136.07) rotate(180)" style="fill:#f99746"/><polygon points="2816.33 2140.73 2728.15 2143.61 2816.33 2145.34 2816.33 2140.73" style="fill:#f4d2b8"/><polygon points="2816.33 2101.39 2606.55 2104.26 2816.33 2105.99 2816.33 2101.39" style="fill:#f4d2b8"/><path d="M2608.71,2103.69a39.73,39.73,0,0,1,12,19.42,32.14,32.14,0,0,1,.93,6.75c.5,16,0,52.35,0,52.35l26.54-18.15,26.47,18.15V2133c0-9.3-2.27-18.35-6.49-24.28-2-2.87-4.52-5-7.33-5Z" style="fill:#699dee"/><path d="M2608.71,2103.69a39.73,39.73,0,0,1,12,19.42l53.19.72s-2.09-17.29-13.07-20.14Z" style="fill:#568cdb"/><path d="M1567.17,1585.21h561a89.81,89.81,0,0,1,89.81,89.81v69.53a91.84,91.84,0,0,1-91.84,91.84H1567.17a0,0,0,0,1,0,0V1585.21A0,0,0,0,1,1567.17,1585.21Z" style="fill:#fcecdb"/><path d="M2218.25,1682.67v54.06c-.14,23.08-10.84,43.12-26.56,53.83a46.45,46.45,0,0,1-26.2,8.26H1550c-7.21,0-13.06,7-13.06,15.59v6.38c0,8.62,5.85,15.6,13.06,15.6h1063.2c30.51,0,57.47-18.11,73.75-45.83a121.82,121.82,0,0,0,16.3-61.71v-42.66a117,117,0,0,0-8.4-43.91c-13.67-33.77-42.63-57.06-76.15-57.06H1550c-7.21,0-13.06,7-13.06,15.58v6.38c0,8.61,5.85,15.6,13.06,15.6h617.33c14.76,0,28.11,7.5,37.44,19.5A66.39,66.39,0,0,1,2218.25,1682.67Z" style="fill:#afcdfb"/><path d="M1537,1814.41v6.38c0,8.62,5.85,15.6,13.06,15.6h1063.2c30.51,0,57.47-18.11,73.75-45.83h-495.3a46.45,46.45,0,0,1-26.2,8.26H1550C1542.83,1798.82,1537,1805.8,1537,1814.41Z" style="fill:#a4c4f4"/><polygon points="1567.17 1710.8 1646.07 1715.02 1567.17 1717.57 1567.17 1710.8" style="fill:#f4d2b8"/><polygon points="1567.17 1652.99 1754.87 1657.22 1567.17 1659.76 1567.17 1652.99" style="fill:#f4d2b8"/><path d="M1752.94,1656.38s-12.39,8-16.49,21a27.65,27.65,0,0,0-1.29,7.33c-.68,17.39,0,56.76,0,56.76l-36.57-19.68-36.48,19.68v-53.36c0-10.08,3.13-19.9,8.94-26.33,2.82-3.11,6.24-5.45,10.11-5.45Z" style="fill:#f99746"/><path d="M1752.94,1656.38s-12.39,8-16.49,21l-73.29.78s2.87-18.74,18-21.83Z" style="fill:#ed7d2b"/><g id="girl_2" data-name="girl 2"><path d="M818.68,1814.17s114.57,49.91,135.36,49,149-39,149-39l-3.27,22s-98.89,56.88-133.46,60.1c-34,3.18-150.44-30.55-161.67-37.67S786,1821.38,818.68,1814.17Z" style="fill:#ed985f"/><path d="M801.47,1630.55s-42.27-8-63.32,7.34C700,1665.74,698,1761.74,683.68,1776s-48.74,8.2-51.8,82.19,13.71,80.19-6.28,113.22,8.46,66.09,8.46,66.09-11.65-18.23-6.66-31.4c0,0,4.85,29,23.31,35.86s21.18,11.8,24.13,21.78c0,0,157.42-80.66,157.59-137.88s31-113.89,15.85-138.69c0,0,6.74,10.61,7.57,22.41,0,0,9.07-17.39-6.66-33.58s18.46-49.7,13.4-88.51C859.11,1660.89,840.42,1631.71,801.47,1630.55Z" style="fill:#233862"/><path d="M832.6,1868.68c-10.06,7-22.68,12.74-38.51,16.4-59.37,13.71-82.13-36.47-90.67-70.91a51.17,51.17,0,0,1,20.11-6.18c4.29-.51,8.81-.84,12.55-1,6.66-5.1,16.6-26,18.79-58.45l2.8.75,46.79,12.81s-2.15,14.87-3.2,28.93c-.81,11-.94,21.51,1.15,24.08,3.65.8,5.84,1.31,5.84,1.31a.1.1,0,0,0,0,0A301.19,301.19,0,0,1,832.6,1868.68Z" style="fill:#ffb27d"/><path d="M804.46,1762.08s-2.15,14.86-3.19,28.93c-26.51-2.66-38.82-27.9-43.61-41.74Z" style="fill:#ed985f"/><path d="M812.37,1776s-62.92-3.47-60.15-42.63-3.5-66,36.79-65.4,47,16,49.29,29.34S828.81,1775.93,812.37,1776Z" style="fill:#ffb27d"/><path d="M838,1675.45c-8.87-12.47-16.39-10.41-20.76-7.17-33-21.35-57.13,5-57.13,5-6.22,27.78-27.63,42.42-27.63,42.42s10.94,7.9,37.84,3c8.21-1.49,15.83-6.71,22.45-13.22a147.11,147.11,0,0,1-27.45,29c32.59-12.32,48.41-55.28,50-59.83,3.59,3.72,10.62,11.74,12.4,19.25,2.42,10.19,12.85,26.13,18.88,25.86C846.59,1719.76,851.3,1694.16,838,1675.45Z" style="fill:#233862"/><path d="M685.5,1996.61c-5.69-29-24.21-145.1-5.69-182.44,6.66-13.42,32.77-14.63,61.41-13.45,8.92,5.75,42.88,27.5,56.84,24.79l.78-.19c6.57-1.64,9-6.26,3.57-10.24a126,126,0,0,1,31.8,2c9.95,1.88,36.8,15.77,36.8,15.77s-13.52,24.42-33.45,32.85c3.39,30.31-1.65,43.69-33.11,113.72-26.57,59.19,3.59,112.48,3.59,112.48s-156.46,125.79-157.33,61.74C650.06,2105.38,692.76,2033.74,685.5,1996.61Z" style="fill:#f9ddbf"/><path d="M815.8,2228.63a29.06,29.06,0,0,0,20.92-12.74c.76-1.13,1.56-2.34,2.42-3.64,17.81-27,24.74-109.52,64.8-197.48,9.76-21.41,44.78-25.27,54.33-49.47,0,0,23.5-78.47-45-80.78S729.83,2102.83,728,2126C726.26,2148.39,682.73,2243.65,815.8,2228.63Z" style="fill:#dd6d22"/><path d="M1088,2226.83H990.55s-3.64-15.55,2.76-26.13c5.66-9.36,3.49-14.7-.71-22.44a38,38,0,0,0,16.42,3.09c4.86-.28,10-2.48,14.5-5.1,4.2,4.78,22.17,25.15,27.78,29.18C1057.67,2210,1086.08,2208.38,1088,2226.83Z" style="fill:#233862"/><path d="M960.5,1907.2c5.87,44,28.79,182.92,69.23,250.7,13,21.85-32.85,34.1-33.09,34-6.16-1.61-16.41-11.42-21.14-15.68C942.67,2146.66,876,2062.88,876,1995.71c0-32.76-.58-95.31,23.24-111.21C913.93,1874.71,958.17,1889.72,960.5,1907.2Z" style="fill:#ed7d2b"/><path d="M757.66,2226.83s3.61-5,9.91-14.58c7.5-11.35,15.8-33.7,25.86-62.35,10.58-30.07,23.12-67.07,38.8-105.57,4.84-11.88,10-23.91,15.44-35.92,9.76-21.41,36.6-18.45,46.15-42.66,0,0,37.26-83.92-31.23-86.23S663.93,2104,656.45,2126C648.26,2150,608.31,2249.87,757.66,2226.83Z" style="fill:#f99746"/><path d="M1016.48,2226.83H919s-3.64-15.55,2.76-26.13c5.67-9.36,3.49-14.7-.7-22.44a38,38,0,0,0,16.42,3.09c4.86-.28,10-2.48,14.5-5.1,4.19,4.78,22.16,25.15,27.77,29.18C986.1,2210,1014.51,2208.38,1016.48,2226.83Z" style="fill:#2b478b"/><path d="M793.43,2149.9c10.58-30.07,23.12-67.07,38.8-105.57-4.09-29.16-12.92-54.68-27.78-65C804.45,1979.37,768.43,2091,793.43,2149.9Z" style="fill:#ed7d2b"/><path d="M903.59,1904.08c5.87,44,14.14,186,54.58,253.82,13,21.85-32.85,34.1-33.1,34-6.15-1.61-16.41-11.42-21.13-15.68-32.83-29.59-99.48-113.37-99.48-180.54,0-32.76,38.44-92.68,62.25-108.58C881.38,1877.34,901.26,1886.6,903.59,1904.08Z" style="fill:#f99746"/><path d="M824.15,1753.52s-5.95-2.35-22.68-1c0,0,.89,6.53,13.23,7.17C821.69,1760.07,824.15,1753.52,824.15,1753.52Z" style="fill:#fff"/><polygon points="1115.21 1778.03 1095 1741.56 1051.28 1863.57 1077.07 1891.27 1115.21 1778.03" style="fill:#163560"/><polygon points="1009.68 1799.39 969.03 1915.5 1077.07 1891.27 1115.21 1778.03 1009.68 1799.39" style="fill:#1c468a"/><polygon points="971.18 1909.65 969.29 1906.34 1007.75 1796.45 1009.68 1799.39 971.18 1909.65" style="fill:#efdece"/><polygon points="1007.75 1796.45 1110.18 1776.52 1115.21 1778.03 1009.68 1799.39 1007.75 1796.45" style="fill:#fcecdb"/><polygon points="1115.21 1778.03 1093.36 1743.33 1079.42 1782.5 1110.18 1776.52 1115.21 1778.03" style="fill:#efdece"/><path d="M1040.87,1816.2c-3.51-.67-11-3.52-18.68-5.61,2.28-1.77,4.81-3.95,5.52-6.18,1.36-4.3,2.27-5.68-2.27-4.32s-20.42,8.65-20.42,8.65l0,0c-9,2.63-17.33,15.38-17.33,15.38S876,1863.41,862.59,1864.08c-20.8,1.05-159.17-49.91-159.17-49.91-32.66,7.21-25.33,47.33-14.09,54.45s110.8,43.35,169.81,44c29.89.34,138.61-69.53,138.61-69.53s12.71-5.81,22.7-4,33.13,0,38.12-8.17S1046.77,1817.34,1040.87,1816.2Z" style="fill:#ffb27d"/><path d="M774.71,1839.3s-12.37,39.18-54.88,48.09c0,0-70.19-21.62-35.24-69.44C684.59,1818,719.14,1792.28,774.71,1839.3Z" style="fill:#f9ddbf"/><path d="M1113.4,1819.15h0a10.91,10.91,0,0,0-.37-3.18s-10-15.84-13.3-16.49c-10-2-10,11.18-7.86,19.66a34.46,34.46,0,0,0,8.26,14.65h0l-.4,12.39C1116.6,1836.92,1113.4,1819.15,1113.4,1819.15Z" style="fill:#ffb27d"/></g><path d="M527,1612.35c4-98.75-78.78-142.63-163.41-142.63S186.81,1491.65,178.83,1623c-5.13,84.48,39.9,136.46,169.58,136.46,43.73,0,77.72-6.9,103.76-19.2l64.82,57.6-31.86-79.61C513.35,1692,525.24,1655,527,1612.35Z" style="fill:#ebf3fa"/><path d="M2222.2,1316c3.65-90.28-72-130.39-149.39-130.39s-161.57,20-168.87,140.09c-4.69,77.23,36.48,124.75,155,124.75,40,0,71.05-6.3,94.85-17.55l59.26,52.66L2184,1412.75C2209.76,1388.77,2220.63,1354.94,2222.2,1316Z" style="fill:#91b5f8"/><path d="M2198.12,1792.32c18.36,32.48,41.65,45.13,41.65,45.13l97.27.69S2184.11,1767.54,2198.12,1792.32Z" style="fill:#233862"/><path d="M2271.06,2043.16c2.51,2.92,2.81,6.17,1.53,9.63a.08.08,0,0,1,0,0c-2.37,6.4-10.08,13.5-19,20.59-1.14.91-2.16,1.74-3,2.5l-.69.61-.53.47c-8.35,7.59-5.24,9.37-20.26,24.79-17.14,17.58-28.85,17.81-32.17,16.18-2.8-1.4,3-10.74,9.41-21.24l.93-1.54c.86-1.39,1.7-2.81,2.55-4.21,7.53-12.65,5.66-18.62,4-37.52-1.32-15.36-23.28-85.94-23.28-85.94l32.63-5.38s9.42,56.14,20.17,64.85c5.75,4.65,12.23,4.75,17.76,8.2.39.24.77.49,1.15.74A42.68,42.68,0,0,1,2271.06,2043.16Z" style="fill:#ffb27d"/><path d="M2271.06,2043.16c2.51,2.92,2.81,6.17,1.53,9.63a.08.08,0,0,1,0,0c-2.89,6.39-10.41,13.46-19.07,20.52-1.13.93-2.13,1.78-3,2.57l-.69.61-.53.47c-8.35,7.59-5.24,9.37-20.26,24.79-17.14,17.58-28.85,17.81-32.17,16.18-2.8-1.4,3-10.74,9.41-21.24a72.46,72.46,0,0,0,30.47-22.13c10.33-13,17.28-29.73,24.32-39.41.39.24.77.49,1.15.74A42.68,42.68,0,0,1,2271.06,2043.16Z" style="fill:#233862"/><path d="M2008.41,2021c-2.08,10-16.41,8.27-32.4,4.24s-12.22.65-35-2-29.63-11.24-30.3-14.63c-.6-3,10.67-4,22.76-5.31,1.53-.15,3-.33,4.58-.51,13.66-1.62,23.71-10.35,36.15-17.49,11.79-6.77,29.51-34.55,29.51-34.55l31.25,2.7s-16.59,24.81-23,35.6c-3.78,6.34-3.64,14.77-3.22,21.28A40,40,0,0,1,2008.41,2021Z" style="fill:#ffb27d"/><path d="M1976,2025.19c-16-4-12.22.65-35-2s-29.63-11.24-30.3-14.63c-.6-3,10.67-4,22.76-5.31l.12.24a64.27,64.27,0,0,0,32.58,10.38c15.46.48,31.88-3.83,42.56-3.59a40,40,0,0,1-.32,10.7C2006.33,2031,1992,2029.22,1976,2025.19Z" style="fill:#233862"/><path d="M2129.66,1821.85l28.67,78.87,37.44,103a61.93,61.93,0,0,0,20.29-1.71c9.15-2.58,19.67-9.41,19.67-9.41s-9.82-110.34-29.14-173.79c-5-16.28-10.53-29.46-16.75-36.9C2159.45,1745.44,2129.66,1821.85,2129.66,1821.85Z" style="fill:#233862"/><path d="M2160.26,1697.15c19.19-6,73.75,2.27,128.54,13.4l11.63-18.87,118.57-8.42s38.49,87,16.7,142.11c-3.21,8.1-11,11.47-21.68,11.56v0s-70.73,1.23-93.64,1.07c-58.93-.42-124.44-41.4-132.94-43.16-13.91-2.88-19.68,24.94-33.82,54.1s-131.86,128.63-131.86,128.63-18,.05-25.4-2.79c-8-3-10.86-7-10.86-7S2117,1710.77,2160.26,1697.15Z" style="fill:#2b478b"/><path d="M2302.27,1528.48c42,23.54,127.31,72.31,127.76,72,0,0,31.38,12.08,49.32.35,29.89-19.55,46.22-72.62-7.87-118.76-27-23-46.22-28.71-48.89-65.18-1.45-19.78-28-85.23-73-79.51a68.08,68.08,0,0,1-11.32.66,42.09,42.09,0,0,0-22.83,5.73C2290,1358.72,2239.07,1519,2302.27,1528.48Z" style="fill:#233862"/><path d="M2337.78,1509c-.18.12,20.72,7.42,34.77,1.32,13.22-5.73,23.35-27.34,23.16-27.36-6-.32-12.54-5.6-17.36-40l-2.56.9-43,15.14s3,13.79,4.93,26.92C2339.3,1496.86,2340.14,1507.41,2337.78,1509Z" style="fill:#ffb27d"/><path d="M2332.76,1458.92s1.83,9.67,4.38,23.48c24.68-4.26,35.08-25.32,38.65-38.62Z" style="fill:#ed975d"/><path d="M2326.27,1472.54s58.78-7.46,53.56-44-1.14-62.1-38.88-58.87-43,18.2-44.27,30.82S2310.84,1473.54,2326.27,1472.54Z" style="fill:#ffb27d"/><path d="M2299,1380.5s37.36,32.66,62.91,35.45,35.29-5.35,35.29-5.35a99.89,99.89,0,0,1-23.91-32.88,18,18,0,0,0-14.75-10.7C2340.26,1365.31,2305.66,1364.35,2299,1380.5Z" style="fill:#233862"/><path d="M2322.49,1377.76s-12.67,12.07-16.69,21.06c-3.88,8.68-5.18,29.49-2.19,37.77,0,0-19.33-38.23-8.1-56.67C2307.41,1360.38,2322.49,1377.76,2322.49,1377.76Z" style="fill:#233862"/><path d="M2287.73,1595.11c.93,118.88-.18,94,12.74,105.4,3.12,2.74,11.91,4.42,23.5,5.27,36.43,2.68,100.55-2.88,103-9.6,8.58-23.24,2.69-30.53,10-66.16.75-3.79,1.69-7.89,2.78-12.36,6-24.46,11.78-32.76-8.7-72.28-18.56-35.8-37.9-64.89-39.67-63.85-49.85,29.12-53.68,4.32-53.68,4.32S2287.26,1537.12,2287.73,1595.11Z" style="fill:#f9ddbf"/><path d="M2158.33,1900.72l37.44,103a61.93,61.93,0,0,0,20.29-1.71c9.15-2.58,19.67-9.41,19.67-9.41s-9.82-110.34-29.14-173.79Z" style="fill:#2b478b"/><path d="M2337.69,1485.84s-51.14,8.3-57.3,30.25-42.36,151-42.36,151,25.93,4.85,38-7.07,42.53-111,42.53-111Z" style="fill:#f9ddbf"/><path d="M2324,1705.78c36.43,2.68,100.55-2.88,103-9.6,8.58-23.24,2.69-30.53,10-66.16l-17.23-49.63s2.51,55.15-13.85,69.53-66.76,27.52-74.74,39.58C2327.28,1695.29,2324.73,1701.1,2324,1705.78Z" style="fill:#f2ccaa"/><path d="M2365.9,1682.89s-35.91-8.26-41.73-5.11-20.09,14.67-21.89,18.7,12.94-3,17.72-4.22c3.11-.81,11.23,2.08,15.26,3.45,16.93,5.78,27.35,2.94,27.35,2.94Z" style="fill:#ffb27d"/><path d="M2391.4,1481.5s48.26,3.32,64.81,26.75c23.3,33,69,173.17,42.11,191.63-30.27,20.79-137.15,4.53-137.15,4.53s-3.44-16.67,1.57-24.68,85.6-20.45,89.34-24.14-45.93-72.77-45.85-83.92S2391.4,1481.5,2391.4,1481.5Z" style="fill:#f9ddbf"/><path d="M2322.36,1687.78s-7.61,9.66-10.08,10.8a7.38,7.38,0,0,1-4.08.85l5.15-9.11Z" style="fill:#ffb27d"/><path d="M2324.17,1677.78l-22,10.48s.92,1.53,3.62,1.43,9.52-2.54,9.52-2.54Z" style="fill:#ffb27d"/><polygon points="2316.96 1714.27 2143.68 1713.05 2092.47 1583.06 2265.48 1584.28 2316.96 1714.27" style="fill:#f99746"/><polygon points="2141.68 1707.98 2370.51 1709.6 2370.47 1714.65 2143.68 1713.05 2141.68 1707.98" style="fill:#ed7d2b"/><path d="M2187.88,1648.54c-1.28-4.56,1.39-8.24,5.94-8.2s9.29,3.75,10.56,8.32-1.39,8.24-5.94,8.21S2189.15,1653.11,2187.88,1648.54Z" style="fill:#fff"/><rect x="1474.77" y="1912.45" width="104.67" height="526.5" transform="translate(-648.89 3702.38) rotate(-89.99)" style="fill:#c65447"/><path d="M1263.84,2228l-77.38-33.1-45-19.25,46.06-19.69,76.35-32.62s10.19,25.48,10.34,49.45C1274.45,2210.38,1263.84,2228,1263.84,2228Z" style="fill:#fcecdb"/><path d="M1851.56,2158.15v33.09a36.87,36.87,0,0,1-36.86,36.85h-24.36l0-104.66h26.49A34.72,34.72,0,0,1,1851.56,2158.15Z" style="fill:#fcecdb"/><path d="M1187.52,2155.94c1.92,10.58,3.58,26.78-1.06,38.94l-45-19.25Z" style="fill:#2b478b"/><path d="M1377,1578.36s9.43,40.92,36.92,40.92c23.57,0,55.89-53.27,55.89-53.27Z" style="fill:#f99746"/><path d="M1692.65,2182.75,1675,2194.89s-84.94-90.53-105.45-177.32c-3.65-15.49-5.13-30.78-3.57-45.28,0,0-1.24-3.93-3.41-10.88-.09-.3-.19-.61-.29-.92-1-3-2.08-6.64-3.35-10.7-4.12-13.12-9.78-31.06-16.22-51.49-14.85-47-48.8-153.06-63.31-197.17l104.28-37.72s11.85,27,28.87,100.42c2.62,9.58,5.24,20.18,7.7,31.72,2.78,13.08,5.37,27.38,7.53,42.82a656.88,656.88,0,0,1,6.25,87.9c.06,13.14-.26,26.76-1,40.82-.57,10.3,1,24,3.84,39.66C1650,2078.17,1692.65,2182.75,1692.65,2182.75Z" style="fill:#2b478b"/><path d="M1748.21,2226.38H1663.9s-3.15-13.45,2.38-22.6c4.9-8.09,3-12.7-.6-19.4a32.83,32.83,0,0,0,14.2,2.67c4.2-.24,8.64-2.15,12.54-4.41,3.62,4.14,19.16,21.75,24,25.24C1722,2211.83,1746.51,2210.42,1748.21,2226.38Z" style="fill:#233862"/><path d="M1627.77,1838.37l-65.5,122.12c-1-3-2.08-6.64-3.35-10.7-4.12-13.12-9.78-31.06-16.22-51.49-14.85-47-48.8-153.06-63.31-197.17l104.28-37.72s11.85,27,28.87,100.42c2.62,9.58,5.24,20.18,7.7,31.72C1623,1808.63,1625.61,1822.93,1627.77,1838.37Z" style="fill:#233862"/><path d="M1477.69,2200s-5.83,14.32-.34,26.39h45.86s1-10.89-15.69-23.51C1494.92,2193.31,1477.69,2200,1477.69,2200Z" style="fill:#233862"/><path d="M1527.6,1267.82c0-2.28,1.2-26.89,38.6-29.08,0,0-18.35,2.64-21.34,10.81,0,0,12.29-10.3,22.57-7.33s16.71,20.7,16.92,26.58-5,25-11.45,26.74a19.71,19.71,0,0,1-7.85.2,86.79,86.79,0,0,1,5.24,8.86c15.68,30.29,2.16,66-10.57,63-8.16-1.93-13.12,12.21-13.12,12.21l-78.48-67.48S1495.62,1251.73,1527.6,1267.82Z" style="fill:#2c3a64"/><path d="M1478.27,1472.89c8.7,6,19.61,11,33.3,14.18,51.34,11.86,71-31.53,78.41-61.32a44,44,0,0,0-17.39-5.34c-3.71-.44-7.62-.73-10.85-.89-5.76-4.42-14.36-22.49-16.25-50.55l-2.42.65-40.46,11.07s1.85,12.87,2.76,25c.7,9.52.81,18.61-1,20.83-3.16.69-5.05,1.13-5.05,1.13a.06.06,0,0,1,0,0A260.25,260.25,0,0,0,1478.27,1472.89Z" style="fill:#ffb27d"/><path d="M1502.61,1380.7s1.86,12.85,2.76,25c22.92-2.3,33.56-24.12,37.7-36.09Z" style="fill:#ed985f"/><path d="M1502.14,1400s52.77-13.56,43.82-46.3-8.17-56.54-42.24-49.26-37.18,21.55-36.85,33.2S1488.18,1402.69,1502.14,1400Z" style="fill:#ffb27d"/><path d="M1463.43,1319c5.42-12.08,12.15-11.6,16.4-9.59,24.38-23.67,49.3-5.41,49.3-5.41,10,22.52,30.59,31.32,30.59,31.32s-8,8.54-31.59,8.93c-7.22.12-14.55-3-21.27-7.43a127.23,127.23,0,0,0,28.17,20c-29.72-4.94-50.38-38.71-52.5-42.3-2.41,3.76-7,11.75-7.26,18.41-.33,9.06,3.2,26.54-2,27.33C1473.31,1360.25,1455.31,1337.13,1463.43,1319Z" style="fill:#2c3a64"/><path d="M1487,1425s88.64-21.52,127.18,10.27l-19.26,268.63L1421.52,1662s4.88-17,38.12-62.2S1478.42,1488.27,1487,1425Z" style="fill:#ffb27d"/><path d="M1538.63,1674s-.1.91-.28,2.64c-.08.75-.18,1.65-.29,2.7-.75,7-2.16,20.33-4,37.7-4.76,45.56-12.22,118.73-17.31,176.49-4,45.16-6.51,80.9-5.14,86.64,4.1,17.26,0,223.71,0,223.71-14.74,7.06-37.08,0-37.08,0s-39.24-186-33.75-211.89-3.67-47.93-3.67-47.93c-30.48-141.92-27.14-220.57-21.09-258.22a159.56,159.56,0,0,1,5.21-23,50.19,50.19,0,0,1,2.09-5.65C1490.56,1639.06,1538.63,1674,1538.63,1674Z" style="fill:#2b478b"/><path d="M1626.09,1511.84c-4.28,32.32-21.4,71.86-27.51,93.15,0,0,10.22,73.9.46,94.2-1.11,2.31-2.48,3.93-4.16,4.66-36.15,15.74-176.92.45-182.86-45-2.16-16.5,53.62-74.54,56.87-81.58,1.35-2.91,2.78-12.35-3.76-31.92-9.27,28.58-60.43,20.36-60.43,20.36,6-10.28,21-81.36,37.67-113.45,12.56-24.12,46.09-27.62,46.09-27.62s14,22.14,47.71,19,39.93-23.8,39.93-23.8,29.93,4,39.16,11.42C1616.86,1432.59,1631.7,1469.5,1626.09,1511.84Z" style="fill:#f99746"/><path d="M1598.58,1605s10.22,73.9.46,94.2c-26.33-13.22-47.09-49-42.3-88.82,3.54-29.45,8.81-36.16,24.56-53,11.58-12.38,38.34-13.08,36.24-7.19C1611.3,1567.71,1601.81,1593.75,1598.58,1605Z" style="fill:#ed7d2b"/><polygon points="1488.64 1517.59 1549 1614.43 1446.3 1614.43 1388.79 1519.69 1488.64 1517.59" style="fill:#1c468a"/><polygon points="1545.86 1609.57 1546.9 1606.18 1489.79 1514.55 1488.64 1517.59 1545.86 1609.57" style="fill:#efdece"/><polygon points="1489.79 1514.55 1393.04 1517.3 1388.79 1519.69 1488.64 1517.59 1489.79 1514.55" style="fill:#fcecdb"/><polygon points="1388.79 1519.69 1334.51 1490.31 1397.78 1589.66 1446.3 1614.43 1388.79 1519.69" style="fill:#163560"/><path d="M1676,1587.55c-5.81,2.65-20.73,20.23-26.06,22-24,8-125.87-13.32-125.87-13.32l3.16-17.85s100,2.66,111-.28c2.07-.56,12.88-17.47,17-19.89Z" style="fill:#ffb27d"/><path d="M1527.24,1578.4s-12.06-9.82-20.21-7.6-20.15,12.53-24.6,15-16.55,11.18-10.42,16.46,25.22.74,32.79-3.31,19.29-2.66,19.29-2.66Z" style="fill:#ffb27d"/><path d="M1509.34,1570.48s-14.66-1.74-18.67-1.66-2.91,1-.7,4.06,9.84,4.3,10.19,5.38S1509.34,1570.48,1509.34,1570.48Z" style="fill:#ffb27d"/><path d="M1576.1,1419.88s43.48,5.16,55.45,23.8c15.13,23.57,50.85,117.46,49.7,141.12,0,0-26.12,44.45-115.67,37.33,0,0-9.32-32.91,9.52-43.77,0,0,46-8.18,51.29-12.85l-37.5-68.16Z" style="fill:#f99746"/><path d="M1402.7,1555.09c-1.35-5.48-13.29-2.06-17.32,1.09a16.32,16.32,0,0,0-3.06,3.6c-.13-.92-.23-1.79-.3-2.48-.22-2.57-3.22-7.18-4-3.73s-2,18-2,18c-.15,11.68,7.36,16.5,12.18,12.7S1404,1560.56,1402.7,1555.09Z" style="fill:#ffb27d"/></svg>