<?xml version="1.0" encoding="utf-8"?>
<!-- Generator: Adobe Illustrator 22.1.0, SVG Export Plug-In . SVG Version: 6.00 Build 0)  -->
<svg version="1.1" id="Capa_1" xmlns="http://www.w3.org/2000/svg" xmlns:xlink="http://www.w3.org/1999/xlink" x="0px" y="0px"
	 viewBox="0 0 455.7 455.7" style="enable-background:new 0 0 455.7 455.7;" xml:space="preserve">
<style type="text/css">
	.st0{fill:#0077B5;}
</style>
<path class="st0" d="M0,0v455.7h455.7V0H0z M316.7,302.5c0,2.1-0.6,2.7-2.7,2.7c-11.8-0.1-23.7-0.1-35.5,0c-2.1,0-2.5-0.6-2.5-2.6
	c0.1-21.9,0.1-43.7,0-65.6c0-5.5-0.4-11-1.9-16.3c-2.8-9.8-9.9-14.8-20.1-14.3c-14,0.7-21.3,7.7-23.1,22c-0.4,3.4-0.6,6.8-0.6,10.3
	c0,21.3,0,42.5,0.1,63.8c0,2.1-0.5,2.8-2.7,2.7c-11.9-0.1-23.8-0.1-35.8,0c-1.9,0-2.5-0.5-2.5-2.4c0-42.1,0-84.2,0-126.3
	c0-2.1,0.7-2.6,2.6-2.6c11.3,0.1,22.7,0.1,34,0c2.1,0,2.6,0.7,2.6,2.6c-0.1,5,0,10.1,0,15.1c2.7-3.1,5-6.2,7.8-8.8
	c8.6-8.1,18.8-12.2,30.8-12.1c6.5,0.1,13,0.5,19.3,2.4c14.4,4.2,22.8,14.1,26.8,28.2c3,10.6,3.6,21.4,3.6,32.3
	C316.7,256.6,316.6,279.5,316.7,302.5z M143.2,108.6c12.9,0,23.6,10.6,23.6,23.5c0,13.1-10.6,23.7-23.6,23.7
	c-12.9,0-23.6-10.7-23.6-23.5C119.5,119.3,130.2,108.6,143.2,108.6z M122.7,176.3c0-1.7,0.4-2.4,2.3-2.4c12,0.1,24,0.1,36,0
	c2.3,0,2.6,0.9,2.6,2.9c-0.1,21,0,42,0,63c0,20.8,0,41.7,0,62.5c0,2.3-0.6,3-3,3c-11.8-0.1-23.7-0.1-35.5,0c-1.9,0-2.5-0.5-2.5-2.4
	C122.7,260.6,122.7,218.5,122.7,176.3z"/>
</svg>
