<?xml version="1.0" encoding="utf-8"?>
<!-- Generator: Adobe Illustrator 22.1.0, SVG Export Plug-In . SVG Version: 6.00 Build 0)  -->
<svg version="1.1"
	 id="svg2" xmlns:cc="http://creativecommons.org/ns#" xmlns:dc="http://purl.org/dc/elements/1.1/" xmlns:inkscape="http://www.inkscape.org/namespaces/inkscape" xmlns:rdf="http://www.w3.org/1999/02/22-rdf-syntax-ns#" xmlns:svg="http://www.w3.org/2000/svg"
	 xmlns="http://www.w3.org/2000/svg" xmlns:xlink="http://www.w3.org/1999/xlink" x="0px" y="0px" viewBox="0 0 406.2 293.8"
	 style="enable-background:new 0 0 406.2 293.8;" xml:space="preserve">
<style type="text/css">
	.st0{fill:#FFFFFF;}
</style>
<g id="g10" transform="matrix(1.25,0,0,-1.25,0,293.75)">
	<g id="g12" transform="scale(0.1,0.1)">
		<path id="path14" inkscape:connector-curvature="0" class="st0" d="M2713.9,691.2c-130.5-114.5-269.2-208.6-416.1-282.2
			c-146.5-74-295.7-129.2-447.7-165.4c-151.9-36.2-300.9-55.2-447.1-56.7c-146.1-1.6-283.8,12.9-413.2,43.2
			c-129.7,30-245.6,74.6-347.7,133.8c-102,58.9-185,130.7-248.9,215.7C329.4,664.6,290.3,761,275.9,869
			c-16.4,127.8-5.3,253,33.3,375.7c38.6,122.7,105.8,240,201.6,351.8c95.9,111.8,221.9,215,378.1,309.7
			c-159.3-58.4-299.2-132.5-419.6-222.1c-120.4-89.6-218.6-189.4-294.6-299.3c-76.4-109.8-128-224.4-154.9-343.6
			C-7,922.1-6.6,803.5,21.1,685.4c28.8-117.3,82.6-220.3,161.3-309.1c78.7-89.2,177.5-162.9,296.2-220.9
			c118.9-58.1,252.5-99,400.9-122.7c148.9-23.8,307.2-28.9,475.2-15.2c168.3,13.7,341.3,47.5,518.9,101.7
			c184.3,57.3,354.3,130.5,510.2,219.8c156.2,89.2,294,189.3,413.2,300.4c119.2,111.4,216,228.9,290.5,352.4h-115.1
			C2912.6,892.3,2826.6,792.2,2713.9,691.2"/>
		<path id="path16" inkscape:connector-curvature="0" class="st0" d="M3220.6,1670.1c-28.8,117.3-82.6,220.5-161.3,309.7
			c-78.7,89.3-177.5,162.8-296.3,220.9c-118.8,57.6-252.5,98.3-400.9,122.1c-148.8,23.8-307.2,28.8-475.2,15.2
			c-168.3-13.6-341.2-47.5-518.9-101.7c-32.7-10.1-65.2-21-97.6-32.7v-366.4c230.7,98.6,448.4,158.4,653.4,179.4
			c204.9,21.1,388.6,10.5,551.1-31.6c162.5-41.7,295.3-107.5,398.6-197.5c103.6-90,169.3-196.4,196.9-319.1
			c27.7-122.7,9.3-254.6-54.9-395.6h116.2c50.3,99.3,83.4,199.4,99.4,300.3C3247.1,1474.2,3243.6,1573.2,3220.6,1670.1"/>
		<path id="path18" inkscape:connector-curvature="0" class="st0" d="M675.2,1284.1v-176.2h-32v176.2H675.2z M837.3,1152.7
			c0-5.5-0.7-10.4-2.1-14.8c-1.4-4.4-3.2-8.2-5.5-11.5c-2.3-3.3-4.9-6.1-8-8.5c-3-2.3-6.2-4.3-9.5-5.7c-3.3-1.5-6.7-2.6-10.1-3.3
			c-3.4-0.7-6.6-1.1-9.6-1.1H706v31.9h86.2c4.3,0,7.6,1.1,9.8,3.3c2.2,2.2,3.3,5.4,3.3,9.6c-0.4,8.5-4.7,12.8-12.9,12.8H743
			c-7,0-13,1.2-17.9,3.7c-4.9,2.4-8.9,5.5-11.9,9.2c-3.1,3.7-5.3,7.7-6.6,11.9c-1.4,4.3-2,8.2-2,11.9c0,7.2,1.3,13.1,3.8,18
			c2.5,4.9,5.7,8.8,9.6,11.9c3.8,3,8,5.2,12.5,6.6c4.5,1.3,8.7,2,12.6,2h78.5v-31.9h-78.2c-1.6,0-2.9-0.2-3.9-0.6
			c-0.9-0.3-1.6-0.9-2.1-1.5c-0.4-0.6-0.7-1.2-0.8-2c-0.1-0.7-0.1-1.4-0.1-2c0.1-1.3,0.3-2.3,0.7-3.1c0.4-0.7,0.9-1.2,1.6-1.6
			c0.6-0.3,1.3-0.5,2.1-0.6c0.8,0,1.6,0,2.3,0h49.5c8.2,0,15.1-1.5,20.9-4.4c5.7-3,10.4-6.7,13.9-11.1c3.5-4.4,6-9.3,7.7-14.6
			C836.5,1162.1,837.3,1157.3,837.3,1152.7L837.3,1152.7z M988.3,1139.8v-31.9h-86.6c-4.4,0-9.3,0.8-14.5,2.3
			c-5.2,1.6-10.1,4.1-14.6,7.7c-4.5,3.6-8.2,8.2-11.2,13.9c-3,5.7-4.5,12.7-4.5,20.9v43.2c0,3.1,0.4,6.2,1.1,9.6
			c0.7,3.4,1.8,6.7,3.3,10c1.4,3.3,3.4,6.5,5.7,9.5c2.4,3,5.2,5.7,8.5,8c3.3,2.3,7.2,4.1,11.5,5.5c4.3,1.4,9.3,2.1,14.7,2.1h86.6
			v-31.9h-86.6c-4.2,0-7.3-1.1-9.5-3.2c-2.1-2.1-3.2-5.4-3.2-9.8v-43c0-4.2,1.1-7.3,3.3-9.6c2.2-2.2,5.4-3.3,9.7-3.3
			C901.9,1139.8,988.3,1139.8,988.3,1139.8z M1150.9,1196.7v-44.8c0-4.4-0.8-9.2-2.3-14.3c-1.5-5.1-4.1-9.9-7.5-14.3
			c-3.5-4.4-8-8.1-13.6-11c-5.6-3-12.4-4.4-20.5-4.4h-57.6c-4.5,0-9.2,0.8-14.3,2.3c-5.1,1.6-9.8,4.1-14.2,7.6c-4.4,3.5-8,8-11,13.6
			c-2.9,5.6-4.4,12.4-4.4,20.4c0,4.4,0.8,9.2,2.3,14.4c1.6,5.2,4.1,9.9,7.5,14.3c3.5,4.4,8,8.1,13.6,11c5.6,2.9,12.4,4.4,20.5,4.4
			h57.6v-30.5h-57.6c-4.3,0-7.7-1.3-10.1-4s-3.6-5.9-3.6-9.9c0-4.2,1.4-7.4,4.1-9.8c2.7-2.3,6-3.5,9.8-3.5h57.3
			c4.4,0,7.7,1.3,10.1,3.9c2.4,2.6,3.6,5.9,3.6,9.8v44.6c0,4.2-1.3,7.5-3.9,10s-5.8,3.7-9.8,3.7h-70.1v30.3h70.1
			c4.5,0,9.2-0.8,14.3-2.3c5.1-1.6,9.8-4.1,14.3-7.5c4.4-3.5,8-8.1,11-13.7C1149.4,1211.6,1150.9,1204.7,1150.9,1196.7z
			 M1306.8,1139.8v-31.9h-86.6c-4.5,0-9.3,0.8-14.5,2.3c-5.3,1.6-10.1,4.1-14.6,7.7c-4.4,3.6-8.2,8.2-11.2,13.9
			c-3,5.7-4.5,12.7-4.5,20.9v43.2c0,3.1,0.3,6.2,1.1,9.6c0.7,3.4,1.8,6.7,3.2,10c1.5,3.3,3.4,6.5,5.7,9.5c2.3,3,5.2,5.7,8.5,8
			c3.3,2.3,7.1,4.1,11.5,5.5c4.3,1.4,9.3,2.1,14.8,2.1h86.6v-31.9h-86.6c-4.2,0-7.4-1.1-9.5-3.2c-2.2-2.1-3.2-5.4-3.2-9.8v-43
			c0-4.2,1.1-7.3,3.3-9.6c2.2-2.2,5.5-3.3,9.7-3.3H1306.8z M1476.6,1196v-43.2c0-5.5-0.7-10.4-2.1-14.8c-1.4-4.4-3.2-8.2-5.6-11.5
			c-2.3-3.3-5-6.1-8-8.5c-3-2.3-6.2-4.3-9.5-5.7c-3.3-1.5-6.7-2.6-10.1-3.3c-3.4-0.7-6.6-1.1-9.6-1.1h-57.6c-4.4,0-9.3,0.8-14.5,2.3
			c-5.2,1.6-10.1,4.1-14.6,7.7c-4.5,3.6-8.2,8.2-11.2,13.9c-3,5.7-4.5,12.7-4.5,20.9v43.2c0,8.2,1.5,15.1,4.5,20.8
			c3,5.7,6.7,10.3,11.2,13.9c4.4,3.6,9.3,6.1,14.6,7.7c5.2,1.6,10.1,2.3,14.5,2.3h57.6c8.2,0,15.1-1.5,20.9-4.4
			c5.7-2.9,10.3-6.6,13.9-11.1c3.6-4.4,6.1-9.3,7.7-14.6C1475.9,1205.3,1476.6,1200.5,1476.6,1196L1476.6,1196z M1444.7,1152.7v43
			c0,4.4-1.1,7.7-3.3,9.8c-2.2,2.2-5.4,3.2-9.6,3.2h-57.4c-4.2,0-7.5-1.1-9.7-3.2c-2.2-2.2-3.3-5.4-3.3-9.5v-43.2
			c0-4.2,1.1-7.3,3.3-9.6c2.2-2.2,5.4-3.3,9.7-3.3h57.4c4.3,0,7.5,1.1,9.7,3.3C1443.6,1145.4,1444.7,1148.5,1444.7,1152.7
			L1444.7,1152.7z M1650.9,1181.6v-73.7H1619v73.7c0,4.2-0.7,7.9-2.1,11.2c-1.4,3.3-3.4,6.2-5.9,8.5c-2.5,2.4-5.4,4.2-8.6,5.5
			c-3.3,1.3-6.9,1.9-10.8,1.9h-55.9v-100.9h-31.9v116.9c0,2.2,0.4,4.3,1.2,6.2c0.8,1.9,1.9,3.6,3.4,5c1.4,1.4,3.2,2.5,5.2,3.4
			c2,0.8,4,1.2,6.2,1.2h72c4,0,8.2-0.5,12.7-1.4s8.9-2.3,13.3-4.4c4.4-2,8.6-4.5,12.5-7.6c3.9-3.1,7.5-6.8,10.6-11.2
			c3.1-4.4,5.5-9.4,7.3-15.2C1650,1195.3,1650.9,1188.8,1650.9,1181.6L1650.9,1181.6z M1807.3,1152.7c0-5.5-0.7-10.4-2.1-14.8
			c-1.4-4.4-3.2-8.2-5.5-11.5c-2.3-3.3-5-6.1-8-8.5c-3.1-2.3-6.2-4.3-9.5-5.7c-3.3-1.5-6.7-2.6-10.1-3.3c-3.4-0.7-6.6-1.1-9.7-1.1
			H1676v31.9h86.2c4.3,0,7.6,1.1,9.8,3.3c2.2,2.2,3.3,5.4,3.3,9.6c-0.4,8.5-4.7,12.8-12.9,12.8H1713c-7,0-13,1.2-17.9,3.7
			c-4.9,2.4-8.9,5.5-11.9,9.2c-3.1,3.7-5.3,7.7-6.6,11.9c-1.4,4.3-2,8.2-2,11.9c0,7.2,1.2,13.1,3.8,18s5.8,8.8,9.6,11.9
			c3.8,3,8,5.2,12.5,6.6c4.5,1.3,8.8,2,12.7,2h78.5v-31.9h-78.2c-1.6,0-2.9-0.2-3.9-0.6c-0.9-0.3-1.6-0.9-2.1-1.5
			c-0.5-0.6-0.7-1.2-0.8-2c-0.1-0.7-0.1-1.4-0.1-2c0.1-1.3,0.3-2.3,0.7-3.1c0.4-0.7,0.9-1.2,1.6-1.6c0.6-0.3,1.3-0.5,2.1-0.6
			c0.8,0,1.5,0,2.3,0h49.5c8.2,0,15.2-1.5,20.9-4.4c5.7-3,10.3-6.7,13.9-11.1c3.5-4.4,6.1-9.3,7.7-14.6
			C1806.5,1162.1,1807.3,1157.3,1807.3,1152.7L1807.3,1152.7z M1974.8,1240.7V1124c0-2.3-0.4-4.4-1.2-6.4c-0.8-1.9-1.9-3.7-3.4-5.1
			c-1.4-1.4-3.1-2.5-5-3.4c-1.9-0.8-4-1.2-6.2-1.2h-72.2c-3.9,0-8.2,0.5-12.6,1.4c-4.4,0.9-8.9,2.3-13.2,4.4
			c-4.3,2-8.5,4.5-12.6,7.6c-4.1,3-7.6,6.8-10.6,11.2c-3,4.4-5.5,9.4-7.3,15.2c-1.8,5.7-2.8,12.2-2.8,19.4v73.7h31.9V1167
			c0-4.2,0.7-7.9,2.2-11.2c1.4-3.3,3.4-6.1,5.8-8.5c2.5-2.4,5.3-4.2,8.7-5.5c3.3-1.3,6.9-1.9,10.7-1.9h55.9v100.9L1974.8,1240.7
			L1974.8,1240.7z M2063.2,1139.8v-31.9h-14.2c-4.6,0-9.5,0.8-14.7,2.3c-5.2,1.6-10,4.1-14.5,7.7c-4.5,3.6-8.2,8.2-11.2,13.9
			c-3,5.7-4.4,12.7-4.4,20.9v144.1h31.9v-144.1c0-3.9,1.2-7.1,3.7-9.4c2.5-2.3,5.5-3.5,9.2-3.5L2063.2,1139.8L2063.2,1139.8z
			 M2199.6,1240.7v-31.9h-55.7v-100.9h-32.3v100.9H2070v31.9h41.5v43.4h32.3v-43.4H2199.6z M2253,1296.8V1268h-31.9v28.9H2253z
			 M2253,1240.7v-132.8h-31.9v132.8L2253,1240.7L2253,1240.7z M2430.8,1181.6v-73.7h-31.9v73.7c0,4.2-0.8,7.9-2.1,11.2
			c-1.4,3.3-3.4,6.2-5.9,8.5c-2.4,2.4-5.3,4.2-8.6,5.5c-3.3,1.3-6.9,1.9-10.8,1.9h-55.9v-100.9h-32v116.9c0,2.2,0.4,4.3,1.2,6.2
			c0.8,1.9,2,3.6,3.4,5c1.4,1.4,3.2,2.5,5.2,3.4c1.9,0.8,4.1,1.2,6.2,1.2h72c4,0,8.2-0.5,12.7-1.4c4.5-0.9,8.9-2.3,13.3-4.4
			c4.4-2,8.6-4.5,12.5-7.6c3.9-3.1,7.5-6.8,10.6-11.2c3.1-4.4,5.5-9.4,7.3-15.2C2429.9,1195.3,2430.8,1188.8,2430.8,1181.6
			L2430.8,1181.6z M2603.2,1196v-100.9c0-5.5-0.7-10.4-2.1-14.8c-1.4-4.4-3.2-8.2-5.6-11.6c-2.3-3.3-5-6.1-8-8.5
			c-3.1-2.3-6.2-4.2-9.5-5.7c-3.3-1.5-6.7-2.6-10.1-3.3c-3.4-0.7-6.6-1-9.6-1h-57.6v31.9h57.6c4.3,0,7.6,1.1,9.7,3.3
			c2.1,2.2,3.2,5.4,3.2,9.6V1196c0,4.2-1.1,7.3-3.2,9.5c-2.1,2.1-5.4,3.2-9.7,3.2h-57.6c-3.9,0-7.1-1.2-9.3-3.6
			c-2.3-2.4-3.4-5.5-3.4-9.1v-43.2c0-4.2,1.1-7.3,3.3-9.6c2.2-2.2,5.4-3.3,9.7-3.3h57.4v-31.9h-57.6c-3.1,0-6.2,0.3-9.6,1.1
			c-3.4,0.7-6.7,1.8-10,3.3c-3.3,1.4-6.5,3.4-9.5,5.7c-3,2.3-5.7,5.2-8,8.5c-2.3,3.3-4.1,7.2-5.5,11.5c-1.4,4.4-2.1,9.3-2.1,14.8
			v43.2c0,3.1,0.4,6.2,1.1,9.6s1.8,6.7,3.2,10c1.5,3.3,3.4,6.5,5.7,9.5c2.4,3,5.2,5.7,8.5,8c3.3,2.3,7.1,4.1,11.5,5.5
			c4.3,1.4,9.3,2.1,14.8,2.1h57.6c3.1,0,6.2-0.3,9.6-1.1c3.4-0.7,6.8-1.8,10.1-3.2c3.3-1.5,6.5-3.4,9.5-5.7c3-2.3,5.7-5.2,8-8.5
			c2.3-3.3,4.1-7.1,5.6-11.5C2602.5,1206.4,2603.2,1201.5,2603.2,1196"/>
	</g>
</g>
</svg>
