<?xml version="1.0" encoding="utf-8"?>
<!-- Generator: Adobe Illustrator 23.0.5, SVG Export Plug-In . SVG Version: 6.00 Build 0)  -->
<svg version="1.1" id="Capa_1" xmlns="http://www.w3.org/2000/svg" xmlns:xlink="http://www.w3.org/1999/xlink" x="0px" y="0px"
	 viewBox="0 0 160 32" style="enable-background:new 0 0 160 32;" xml:space="preserve">
<style type="text/css">
	.st0{fill:#010202;}
</style>
<g id="XMLID_53_">
	<g id="XMLID_69_">
		<path id="XMLID_51_" class="st0" d="M45.4,1.6H43v7.6c0,0.6,0,0.8-0.1,1.1c-0.1,0.9-0.8,1.4-1.8,1.4c-0.8,0-1.3-0.3-1.6-0.8
			c-0.2-0.3-0.2-0.5-0.2-1.4V1.6h-2.5v8.2c0,1.1,0.1,1.6,0.5,2.3c0.7,1,2,1.6,3.8,1.6c2.6,0,3.8-1.3,4-2.3c0.2-0.5,0.2-0.8,0.2-1.9
			L45.4,1.6L45.4,1.6z"/>
		<path id="XMLID_50_" class="st0" d="M48.4,4.5l-2,0.6c0.2,0.6,0.3,1.3,0.3,2v6.3H49V7.2c0.5-0.5,1.1-0.8,1.6-0.8
			c0.6,0,0.8,0.3,0.8,1.3v5.7h2.3V7c0-0.5-0.1-0.9-0.2-1.2c-0.3-0.8-1.1-1.3-2.1-1.3c-0.5,0-1.1,0.2-1.6,0.4c-0.4,0.2-0.5,0.3-1,0.6
			C48.7,5.2,48.6,4.8,48.4,4.5L48.4,4.5z"/>
		<path id="XMLID_119_" class="st0" d="M56.6,0.9c-0.8,0-1.4,0.6-1.4,1.4s0.6,1.4,1.4,1.4S58,3.1,58,2.3C58,1.5,57.3,0.9,56.6,0.9
			L56.6,0.9z M57.7,4.5l-2.3,0.3v8.6h2.3V4.5z"/>
		<path id="XMLID_47_" class="st0" d="M60.8,4.5l-2.4,0.3l3.2,8.6h1.9l3.2-8.7h-2.4l-1.2,3.7c-0.3,0.9-0.5,1.7-0.5,2.2
			C62.5,10,62.2,9.1,62,8.5L60.8,4.5z"/>
		<path id="XMLID_115_" class="st0" d="M70.7,4.5c-1.2,0-2,0.4-2.7,1.2c-0.8,0.9-1.1,1.9-1.1,3.5c0,2.7,1.6,4.6,4.1,4.6
			c1.2,0,2.3-0.4,3.3-1.2l-0.9-1.4c-0.7,0.6-1.4,0.9-2.2,0.9c-1.2,0-1.8-0.8-1.8-2.1l0,0h5V9.5c0-1.8-0.4-3-1.2-3.8
			C72.7,4.8,71.7,4.5,70.7,4.5L70.7,4.5z M69.4,8.1L69.4,8.1c0-1.2,0.5-1.9,1.4-1.9c0.5,0,0.8,0.2,1,0.5s0.3,0.6,0.3,1.3v0.1
			L69.4,8.1L69.4,8.1z"/>
		<path id="XMLID_44_" class="st0" d="M80,4.5c-0.3,0-0.6,0.1-0.8,0.2c-0.4,0.2-1,0.6-1.3,1.1c-0.1-0.5-0.2-0.9-0.4-1.2l-2,0.5
			c0.2,0.5,0.3,1.4,0.3,2.6v5.8h2.3V7.3c0.4-0.5,0.9-0.8,1.4-0.8c0.3,0,0.4,0.1,0.6,0.2l0.6-2C80.5,4.5,80.4,4.5,80,4.5L80,4.5z"/>
		<path id="XMLID_43_" class="st0" d="M84.2,4.5c-2,0-3.4,1.1-3.4,2.8c0,0.6,0.2,1.2,0.5,1.6c0.3,0.4,1,0.8,1.6,0.9l1,0.2
			c0.9,0.2,1.3,0.5,1.3,1.1c0,0.5-0.5,1-1.2,1c-1,0-2.2-0.6-2.9-1l-0.8,1.7c1.3,0.6,2.5,1,3.5,1c2.3,0,3.8-1.2,3.8-3.1
			c0-0.6-0.2-1.1-0.5-1.5s-0.6-0.7-1.8-1l-1.1-0.3c-0.8-0.2-1.1-0.4-1.1-0.9s0.4-0.9,1.1-0.9c0.6,0,1.3,0.2,2.1,0.6l0.8-1.6
			C86.6,4.9,85.6,4.5,84.2,4.5L84.2,4.5z"/>
		<path id="XMLID_110_" class="st0" d="M90.2,0.9c-0.8,0-1.4,0.6-1.4,1.4s0.6,1.4,1.4,1.4c0.8,0,1.4-0.6,1.4-1.4
			C91.6,1.5,90.9,0.9,90.2,0.9L90.2,0.9z M91.3,4.5l-2.4,0.3v8.6h2.3L91.3,4.5L91.3,4.5z"/>
		<path id="XMLID_107_" class="st0" d="M98,0.8v3c0,0.5,0.1,1.1,0.1,1.3c-0.4-0.3-0.9-0.5-1.6-0.5c-2.2,0-3.8,1.9-3.8,4.6
			s1.4,4.5,3.6,4.5c0.8,0,1.4-0.2,2-0.8c0.1,0.2,0.1,0.4,0.2,0.5h2c-0.2-0.3-0.3-1-0.3-3.2V1.1L98,0.8z M96.9,11.8
			c-1.2,0-1.6-0.6-1.6-2.5s0.4-2.8,1.4-2.8c0.4,0,0.8,0.2,1.2,0.5v4.2C97.8,11.4,97.3,11.8,96.9,11.8L96.9,11.8z"/>
		<path id="XMLID_104_" class="st0" d="M105.8,4.5c-0.8,0-1.6,0.2-2.4,0.5c-0.6,0.2-0.9,0.4-1.4,0.7l1,1.7c1-0.6,1.8-1,2.5-1
			c0.9,0,1,0.3,1,1.3v0.4c-0.2,0-0.3,0-0.5,0c-2.8,0-4.2,1-4.2,3c0,1.8,1.1,2.7,3,2.7c0.7,0,1.3-0.2,1.8-0.5
			c0.2-0.1,0.2-0.2,0.5-0.5c0.2,0.4,0.7,0.9,1.2,1.1l1.2-1.4c-0.6-0.5-0.8-0.9-0.8-1.8v-0.2l0.1-3c0-1-0.1-1.2-0.2-1.6
			C108.3,5.1,107.3,4.5,105.8,4.5L105.8,4.5z M105.3,12.1c-0.6,0-1-0.5-1-1.1c0-1,0.5-1.3,2.1-1.3h0.1l-0.1,1.9
			C106.2,11.9,105.7,12.1,105.3,12.1L105.3,12.1z"/>
		<path id="XMLID_101_" class="st0" d="M115.6,0.8v3c0,0.5,0.1,1.1,0.1,1.3c-0.4-0.3-0.9-0.5-1.6-0.5c-2.2,0-3.8,1.9-3.8,4.6
			s1.4,4.5,3.6,4.5c0.8,0,1.4-0.2,2-0.8c0.1,0.2,0.1,0.4,0.2,0.5h2c-0.2-0.3-0.3-1-0.3-3.2V1.1L115.6,0.8z M114.5,11.8
			c-1.2,0-1.6-0.6-1.6-2.5s0.4-2.8,1.4-2.8c0.4,0,0.8,0.2,1.2,0.5v4.2C115.4,11.4,114.9,11.8,114.5,11.8L114.5,11.8z"/>
		<path id="XMLID_34_" class="st0" d="M41.8,16.3c-1.9,0-3.6,1-4.6,2.7c-0.5,1-0.8,2.2-0.8,3.7c0,1.8,0.5,3.2,1.4,4.2
			c1,1.1,2.3,1.7,3.9,1.7c1.3,0,2.4-0.3,3.3-1.1L43.9,26c-0.1,0.1-0.2,0.2-0.3,0.2c-0.6,0.4-1.1,0.6-1.8,0.6c-1,0-1.8-0.5-2.3-1.3
			c-0.4-0.6-0.5-1.6-0.5-3.2c0-1.4,0.2-2.4,0.6-3.1c0.4-0.6,1.2-1,2-1c0.6,0,1.3,0.2,1.9,0.6l1.1-1.6C44.2,16.6,43,16.3,41.8,16.3
			L41.8,16.3z"/>
		<path id="XMLID_97_" class="st0" d="M49.2,19.5c-0.8,0-1.6,0.2-2.4,0.5c-0.6,0.2-0.9,0.4-1.4,0.7l1,1.7c1-0.6,1.8-1,2.5-1
			c0.9,0,1,0.3,1,1.3v0.4c-0.2,0-0.3,0-0.5,0c-2.8,0-4.2,1-4.2,3c0,1.8,1.1,2.7,3,2.7c0.7,0,1.3-0.2,1.8-0.5
			c0.2-0.1,0.2-0.2,0.5-0.5c0.2,0.4,0.7,0.9,1.2,1.1l1.2-1.4c-0.6-0.5-0.8-0.9-0.8-1.8v-0.2l0.1-3c0-1-0.1-1.2-0.2-1.6
			C51.7,20,50.7,19.5,49.2,19.5L49.2,19.5z M48.7,27.1c-0.6,0-1-0.5-1-1.1c0-1,0.5-1.3,2.1-1.3h0.1l-0.1,1.9
			C49.5,26.8,49.1,27.1,48.7,27.1L48.7,27.1z"/>
		<path id="XMLID_31_" class="st0" d="M63,19.5c-1,0-1.7,0.3-2.5,1.1c-0.2-0.2-0.2-0.3-0.3-0.4c-0.5-0.5-1.1-0.7-1.8-0.7
			c-0.8,0-1.6,0.3-2.1,0.9c-0.1-0.4-0.2-0.6-0.3-0.9l-2.1,0.6c0.2,0.4,0.3,1,0.3,2.3v6.1h2.3v-6.4c0.5-0.4,1.1-0.6,1.5-0.6
			c0.6,0,0.8,0.3,0.8,1.3v5.7H61v-6.3c0.5-0.4,1.1-0.8,1.5-0.8c0.6,0,0.7,0.2,0.7,1.2v5.8h2.2v-6.3c0-1.2-0.2-1.7-0.6-2.1
			C64.3,19.7,63.6,19.5,63,19.5L63,19.5z"/>
		<path id="XMLID_93_" class="st0" d="M68.4,15.8c-0.8,0-1.4,0.6-1.4,1.4s0.6,1.4,1.4,1.4c0.8,0,1.4-0.6,1.4-1.4
			S69.2,15.8,68.4,15.8L68.4,15.8z M69.5,19.4l-2.3,0.4v8.6h2.3V19.4z"/>
		<path id="XMLID_28_" class="st0" d="M73.6,15.7l-2.4,0.5c0.1,0.8,0.1,1.5,0.1,2.6v6.5c0,1.2,0.1,1.5,0.2,2c0.3,0.8,1.1,1.2,2,1.2
			c0.5,0,1-0.1,1.3-0.2l-0.4-1.4C74.3,27,74.2,27,74.1,27c-0.2,0-0.4-0.1-0.5-0.2c-0.2-0.2-0.2-0.4-0.2-1.9v-6.8
			C73.7,16.8,73.7,16.2,73.6,15.7L73.6,15.7z"/>
		<path id="XMLID_89_" class="st0" d="M79.1,19.5c-2.4,0-3.9,1.8-3.9,4.6c0,2.7,1.6,4.6,3.9,4.6c1.3,0,2.2-0.5,2.9-1.2
			c0.8-0.9,1.1-1.9,1.1-3.4c0-1.4-0.3-2.4-1-3.2C81.3,19.9,80.3,19.5,79.1,19.5L79.1,19.5z M79.1,26.9c-0.4,0-1-0.2-1.2-0.7
			c-0.2-0.4-0.3-1.2-0.3-2.2c0-0.9,0.1-1.5,0.2-1.9c0.2-0.5,0.6-0.9,1.2-0.9c0.4,0,0.8,0.2,1,0.5c0.3,0.4,0.5,1.2,0.5,2.4
			C80.5,26.1,80.1,26.9,79.1,26.9L79.1,26.9z"/>
		<path id="XMLID_25_" class="st0" d="M90.6,16.5h-2.4v9.8c0,1.3-0.1,1.8-0.2,2.2c-0.2,0.5-0.8,1.1-1.4,1.4l1.1,1.2
			c1.1-0.4,2.4-1.3,2.8-2.8c0.1-0.5,0.2-0.8,0.2-2.3L90.6,16.5L90.6,16.5z"/>
		<path id="XMLID_85_" class="st0" d="M95.5,19.5c-2.4,0-3.9,1.8-3.9,4.6c0,2.7,1.6,4.6,3.9,4.6c1.3,0,2.2-0.5,2.9-1.2
			c0.8-0.9,1.1-1.9,1.1-3.4c0-1.4-0.3-2.4-1-3.2C97.7,19.9,96.8,19.5,95.5,19.5L95.5,19.5z M95.6,26.9c-0.4,0-1-0.2-1.2-0.7
			c-0.2-0.4-0.3-1.2-0.3-2.2c0-0.9,0.1-1.5,0.2-1.9c0.2-0.5,0.6-0.9,1.2-0.9c0.4,0,0.8,0.2,1,0.5c0.3,0.4,0.5,1.2,0.5,2.4
			C97,26.1,96.6,26.9,95.6,26.9L95.6,26.9z"/>
		<path id="XMLID_22_" class="st0" d="M103.7,19.4c-2,0-3.4,1.1-3.4,2.8c0,0.6,0.2,1.2,0.5,1.6s1,0.8,1.6,0.9l1,0.2
			c0.9,0.2,1.3,0.5,1.3,1.1s-0.5,1-1.2,1c-1,0-2.2-0.6-2.9-1l-0.8,1.7c1.3,0.6,2.5,1,3.5,1c2.3,0,3.8-1.2,3.8-3.1
			c0-0.6-0.2-1.1-0.5-1.5s-0.6-0.7-1.8-1l-1.1-0.3c-0.8-0.2-1.1-0.4-1.1-0.9s0.4-0.9,1.1-0.9c0.6,0,1.3,0.2,2.1,0.6l0.8-1.6
			C106.1,19.9,105.1,19.4,103.7,19.4L103.7,19.4z"/>
		<path id="XMLID_80_" class="st0" d="M113.4,15.4l-3.5,2.2l0.7,1.3l3.8-1.7L113.4,15.4z M111.8,19.5c-1.2,0-2,0.4-2.7,1.2
			c-0.8,0.9-1.1,1.9-1.1,3.5c0,2.7,1.6,4.6,4.1,4.6c1.2,0,2.3-0.4,3.3-1.2l-0.9-1.4c-0.7,0.6-1.4,0.9-2.2,0.9
			c-1.2,0-1.8-0.8-1.8-2.1v-0.2h5v-0.5c0-1.8-0.4-3-1.2-3.8C113.8,19.8,112.8,19.5,111.8,19.5L111.8,19.5z M110.5,23.1L110.5,23.1
			c0-1.2,0.5-1.9,1.4-1.9c0.5,0,0.8,0.2,1,0.5s0.3,0.6,0.3,1.3v0.1H110.5L110.5,23.1z"/>
		<path id="XMLID_18_" class="st0" d="M125.3,16.3c-1.9,0-3.6,1-4.6,2.7c-0.5,1-0.8,2.2-0.8,3.7c0,1.8,0.5,3.2,1.4,4.2
			c1,1.1,2.3,1.7,3.9,1.7c1.3,0,2.4-0.3,3.3-1.1l-1.1-1.5c-0.1,0.1-0.2,0.2-0.3,0.2c-0.6,0.4-1.1,0.6-1.8,0.6c-1,0-1.8-0.5-2.3-1.3
			c-0.4-0.6-0.5-1.6-0.5-3.2c0-1.4,0.2-2.4,0.6-3.1c0.4-0.6,1.2-1,2-1c0.6,0,1.3,0.2,1.9,0.6l1.1-1.6
			C127.6,16.6,126.4,16.3,125.3,16.3L125.3,16.3z"/>
		<path id="XMLID_76_" class="st0" d="M132.7,19.5c-1.2,0-2,0.4-2.7,1.2c-0.8,0.9-1.1,1.9-1.1,3.5c0,2.7,1.6,4.6,4.1,4.6
			c1.2,0,2.3-0.4,3.3-1.2l-0.9-1.4c-0.7,0.6-1.4,0.9-2.3,0.9c-1.2,0-1.8-0.8-1.8-2.1v-0.2h5v-0.5c0-1.8-0.4-3-1.2-3.8
			C134.6,19.8,133.6,19.5,132.7,19.5L132.7,19.5z M131.3,23.1L131.3,23.1c0-1.2,0.5-1.9,1.3-1.9c0.5,0,0.8,0.2,1,0.5
			s0.3,0.6,0.3,1.3v0.1H131.3L131.3,23.1z"/>
		<path id="XMLID_15_" class="st0" d="M139.9,15.7l-2.4,0.5c0.1,0.8,0.1,1.5,0.1,2.6v6.5c0,1.2,0.1,1.5,0.2,2c0.3,0.8,1.1,1.2,2,1.2
			c0.5,0,1-0.1,1.4-0.2l-0.4-1.4c-0.1,0.1-0.2,0.1-0.3,0.1c-0.2,0-0.4-0.1-0.5-0.2c-0.2-0.2-0.2-0.4-0.2-1.9v-6.8
			C140,16.8,140,16.2,139.9,15.7L139.9,15.7z"/>
		<path id="XMLID_72_" class="st0" d="M145.6,19.5c-0.8,0-1.6,0.2-2.4,0.5c-0.6,0.2-0.9,0.4-1.4,0.7l1,1.7c1-0.6,1.8-1,2.5-1
			c0.9,0,1,0.3,1,1.3v0.4c-0.2,0-0.3,0-0.5,0c-2.8,0-4.2,1-4.2,3c0,1.8,1.1,2.7,3,2.7c0.7,0,1.3-0.2,1.8-0.5
			c0.2-0.1,0.2-0.2,0.5-0.5c0.2,0.4,0.7,0.9,1.2,1.1l1.2-1.4c-0.6-0.5-0.8-0.9-0.8-1.8v-0.2l0.1-3c0-1-0.1-1.2-0.2-1.6
			C148.1,20,147,19.5,145.6,19.5L145.6,19.5z M145,27.1c-0.6,0-1-0.5-1-1.1c0-1,0.5-1.3,2.1-1.3h0.1v1.9
			C145.9,26.8,145.4,27.1,145,27.1L145,27.1z"/>
		<path id="XMLID_12_" class="st0" d="M16.1,1.5c-3.7,0-6.7,3-6.7,6.7s3,6.7,6.7,6.7s6.7-3,6.7-6.7C22.9,4.5,19.8,1.5,16.1,1.5
			L16.1,1.5z"/>
		<path id="XMLID_11_" class="st0" d="M10,17c-6.4,0-8.8,6.6-9.7,9.9c-0.1,0.5,0.3,1,0.9,1.1c0.1,0,0.1,0,0.1,0
			c0.4,0,0.7-0.3,0.9-0.6C3.6,24.6,5.4,24,6.9,24c0.9,0,1.6,0.2,2.2,0.4c2.9,0.8,10.7,4.2,13.5,4.2c0.1,0,0.1,0,0.1,0
			c5.7,0,8.2-5.5,9.2-9.9c0.1-0.5-0.4-1-0.9-1.1c-0.1,0-0.1,0-0.1,0c-0.4,0-0.8,0.3-0.9,0.6c-1.3,3-2.7,3.7-4,3.7
			c-0.7,0-1.4-0.2-1.9-0.4c-2.8-0.9-10-4.5-13.9-4.5C10.1,17,10.1,17,10,17L10,17z"/>
	</g>
</g>
</svg>
